/* XPM */
static char *_b25be838d454bff81268f1b12a3ea79YyvxatEOEMgt5YXu[] = {
/* columns rows colors chars-per-pixel */
"64 64 115 2 ",
"   c #C4894A",
".  c #C48F48",
"X  c #C49047",
"o  c #C49147",
"O  c #C48F47",
"+  c #C48A49",
"@  c #C48C48",
"#  c #C48A4A",
"$  c #C48B49",
"%  c #C48C49",
"&  c #C38E46",
"*  c #C08743",
"=  c #C08642",
"-  c #C08542",
";  c #C08843",
":  c #C38F46",
">  c #C18A44",
",  c #C48E48",
"<  c #C48D48",
"1  c #C4884B",
"2  c #C4874B",
"3  c #C4884A",
"4  c #C48D49",
"5  c #C28B44",
"6  c #BF8441",
"7  c #C08742",
"8  c #C18944",
"9  c #C28B45",
"0  c #C28945",
"q  c #C38848",
"w  c #C18545",
"e  c #C08643",
"r  c #C38B48",
"t  c #C39046",
"y  c #C28C45",
"u  c #C38749",
"i  c #C28647",
"p  c #C38D46",
"a  c #C38849",
"s  c #C48B48",
"d  c #C18645",
"f  c #C18646",
"g  c #C28947",
"h  c #C48D47",
"j  c #C38C46",
"k  c #C28547",
"l  c #BF8342",
"z  c #C38F47",
"x  c #C08442",
"c  c #C18843",
"v  c #C28546",
"b  c #C08443",
"n  c #C18445",
"m  c #C18745",
"M  c #C28A45",
"N  c #BF8341",
"B  c #C08343",
"V  c #C3874A",
"C  c #C4874A",
"Z  c #C18546",
"A  c #C08444",
"S  c #C28747",
"D  c #C08544",
"F  c #C38B47",
"G  c #C28847",
"H  c #BF8542",
"J  c #C18444",
"K  c #C08543",
"L  c #C18744",
"P  c #C38948",
"I  c #C28B46",
"U  c #C38649",
"Y  c #C28548",
"T  c #C18943",
"R  c #C28D45",
"E  c #C48E47",
"W  c #C38C47",
"Q  c #C38A49",
"!  c #C49048",
"~  c #C38E45",
"^  c #C38648",
"/  c #C28646",
"(  c #C28A44",
")  c #C18844",
"_  c #C18644",
"`  c #C18743",
"'  c #C28648",
"]  c #C38E47",
"[  c #C38D45",
"{  c #C3864A",
"}  c #C38A47",
"|  c #C28845",
" . c #C38847",
".. c #C49046",
"X. c #BF8442",
"o. c #C4864A",
"O. c #C08342",
"+. c #C28946",
"@. c #C28846",
"#. c #C38949",
"$. c #C28746",
"%. c #C48949",
"&. c #C38748",
"*. c #C38D47",
"=. c #C28C44",
"-. c #BF8241",
";. c #C38A48",
":. c #C38947",
">. c #C38B46",
",. c #C18544",
"<. c #C28A46",
"1. c #C28748",
"2. c #C48849",
"3. c #C18845",
"4. c white",
/* pixels */
"    . X X o o O + O o o @ @ o X # # . o o o # $ o o $ % o o o o o o o o o & * = - ; : > > o . , O o o X X % < o o < , % O o o o ",
"1 2 , @ % % $ X , , % % $ < X X <   3 % o o , , o o % < o o . < 4 , . < , 5 6 - 7 8 : 9 0 % q w e * 8 r . % # X o % , $ . t > y ",
", < X X < u i p o $ 2 2 2 a a 3 4 . % s y > 0 + , X X o o % 1 2 2 i d f g h p j @ % +   2 2 k l - = 8 z o X , X O   < X X & 6 - ",
", , o o 8 x c p , 1 2 2 2 v b n w m M * N N B V 1 3 # , % 2 2 2 C Z N N A C S D C 2 2 2 2 2 3 F z X X < X <   # + 1 3 G * ; 6 - ",
"< < o : H * O + $ 2 2 2 2 V v J K l B B K L P < + 2 3 $ 2 2 2 2 2 + p I a 1 U Y 2 2 2 3 # % . o o o X , X $ 2 3 2 2 k N N 6 T R ",
"o , , : 7 y o . < 2 2 2 2 1 2   E W P Q E o o o X . . X # 2 2 2 2 < o o ! . < $ $ < , X o o : R y ~ o o o , < , 3 ^ / N - M @ ! ",
"@ < X : 5 & o o X % + % , . % 3 + , X o o o o o o o o o .   1 3 $ X o o o o o o o o o o X ( - N N 6 c 5 9 < X o ) N 6 - 9 , $ . ",
"$ . O _ N * O o o o o o o o o ,     X o o o o X X X $ , o X . X o . . o o o X 5 & o o o : - 6 * > m ` * w C $ o 8 6 T : , + X o ",
"X X % Z b ' $ o o o o o o X X X ] W : o o o o <   , $ , o o o o o + $ o o o X c y o o o o & F + % $ @ $ 2 2 # o X & X ! $ < X X ",
"X X + C C 2   X o X [ > c e K d S - - c ] X o , + X o o o o o o o O O X o o o X X : o o o . 3 2 2 2 2 2 2 2 + o o o o < 2 # @ < ",
"o X   2 2 3 < , @ * 6 l l l B Z { k n B i # . o o o o X X +   # } |  .* c y X o ..R o o o X   2 2 2 2 2 2 2 3 X o o o , 2 2 < o ",
"o , 2   % . , 3 C n n U { { V 2 2 2 2 V 2 2 3 < X o , % O % # 3 ' ' { J l X. ., o o o o o o . % < , < < $ 2   X o o o X   2 # X ",
"o , 2 $ o o $ 2 2 2 2 2 2 2 2 2 2 2 2 2 2 2 2 2 + X < 2 < o o j _   2 2 U U o.  X o o o o o o o o o o o , , O o < , o < 1 2 3 . ",
"o .   % o o # 2 2 2 2 2 2 2 2 2 2 2 2 2 2 2 2 2 2 < . % . o o : ~ O # 1   1 2 3 X o o o o o o o o o o o , X X o X X O 3 2 2   X ",
"O . X X % O # 2 2 2 2 2 2 2 2 2 2 2 2 2 2 2 2 2 2 < o o : o o o o o X . X , $ < o o o o o o o o . o o , $     , o o X # 3   < X ",
"  1 , o < + +   1 2 2 2 2 2 2 2 2 2 2 2 3 3   # % X o o R X o o o o o , , o o o o o o o o X X . # . . 1 2 2 2 3 . o . , X .   # ",
"3 2 % o X , , X . $ 1 2 2 2   $   2 1 < X ] O o : [ o o , X o o o o o , , X o o o o o o X # # O , o , 2 2 2 2 2 $ o < < X X   # ",
"3 2 + o o o o o o o ,   3 % , . X , . o o ~ : o X : o X   , o o X < X o % # X o o o o o % 2   . , o X # 2 2 2 2   X X +   X X X ",
"$ 2 + o o o o o o o O 3 3 O X X o o o o . O o o o o o o . X o o , 3 . o # 1 . o o o o o <   , o o o o , 2 2 2 2 $ o o +   p 5 : ",
",   % , 4 , X o o o X $ 2 $ X : o o o . 3   X o o X o o o o o o X . o o O . o o o o o o o X o o o o o .   2 $ , X o o X X T O.+.",
"O . X   2   . o o o o X + 2 a m @ X o .   # X o $ # X o o o o o o o o o o o o o o o o o o o o o o o o o . . X o o o o o o T b q ",
". X o %   < < o o o o o X $ 1 2 2 % o o X X o X # 3 . o X % # 4 o o o o o % % X o o o o o o o o o o o o o ....o o X ] X o 8 N c ",
"X o o o . , . o o o < < o o $ 2 1 , X & y > y X X . o o < 2 2 2 4 o o o o < 1   < o o o o o o o o o X , & * @.O o W w > o : M W ",
"< o . . X o o o o o < < o o . $ < X T - 6 6 6 ( o o o o % 2 2 2 3 , X o o . 2 2 + o o , $ X o o o o < 2 } X.v , o ~ 6 - t o . , ",
"o o X , X o X o o o o o o o o o o o & [ & & = c o o o X #.Z U 2 2 3   , X X $   , o o X % . X O o o . $ j 6 X.& o X T ; .., % X ",
"o o o o o X + . o o o I p o o o o X . , z X ~ & o o o , ^ l k 2 C n { u $.%.# % < , , , < $ 3 3 . o o o t c c t o o X X o $ 2 $ ",
"o o o X % $ # , o o o > y : : o ,   1 2 / +.X o o o o < C U C 2 2 U C Z l U 2 1 2 2 2 2 1 1 3 + X o o o o X X o o o o o o . # < ",
"o X , $ 2 2 2   O X X o o : & % 1 2 2 2 k U % o o o o X % 3 1 1 1 1 # W 9 < < . < % 4 , , . X o o o o o o o o o o , 4 . o o X o ",
". o X $ 2 2 2 k d 3   $ < . + 2 2 2 2 1 2 2   X o o o o o X . . . . X o o o o o o o o o o o o o o o o o o o o X % 1 2   X o % , ",
", o o . # 2 2 Z N U { Y v w n n k %., < 2 2 3 . o o o X o o o X O o . , O o o o o o o o o o X o % $ X o $ $ X + 2 2 2 2 , X < . ",
"o o . . X %   &.J w b N N B O.N l j o < 2 2 3 . o o o . . o o 4 # < % % , X o o o o o o X $ # . $   X X # 2 <   2 3     1 + X o ",
"o o o X o o X . $ w l A ' { { U ^ 3   3 2 2   X o X o o o o o E < $ , o o o & y y X o o X $ # O X X o o . % . . , . X $ 2 2 , o ",
"o o . < o o o o X *.} + # # 1 2 2 2 2 2 2 2 $ o o , p =...o o y y o o o X T 6 6 - & y T X o o o o o o o o o o o o o o , 1   % $ ",
"o o . < o o o o o o o o o o , $   2 2 2 2 # X o o X * b F o o X X o o o ..T > [ & : y > o o o o o o o o o o o o o o o o . O $ 2 ",
"o . % o o o : 5 & o o o o o o o X , % % < X o o o o 9 U 2 , o o o o R 8 X o o o y - > X X . . , , *.[ =.> 8 ( y ..o o o o o # 3 ",
"o X . o o o T N * X , o o o o o o o o o o o o o o o X   3 , . % $ + S w @ o o o > N 6 G   1 C i A b N N N b v l 5 o o X X o . , ",
"o o o o , . 5 6 8 o X : y : o o o o o o o o : [ o o o ] ] < 3 2 2 2 2 2 # o o X P O.N n { U J N l l N N b Z U b 9 . X $ $ o X . ",
"o o o & L j o : X o o ( A 8 X o o o o o o o R 8 X y ` - - D U 2 2 2   + < o o , 2 ' w b l l N l b A w k C 2 C } ,   . , , o X . ",
"o o , ) -.c X o o . % $.b b m ;., , < o o o o X 5 b Z l N N b u 1 % X o o o o , 2 2 2 v l O.w U C 2 2 2 2 2 1 . X , X . . o X X ",
"o o o [ c y , X % a v O.N N l k f /   X o o o o ( b S 8 c 6 6 j . o o o o o o , 1 2 2 C U { 2 2 2 2 2 2 2 2 1 . o o < % X o X , ",
"& y ..o o o X $ V A N b m } :.q K n C # X o . X X p : o X c - : o : t o o o o X   2 2 2 2 2 2 2 2 2 2 2 2 2   X o o $ 3 X o o o ",
"= N 5 o , X % 2 V b J u . o o X ] s 3 1 . < 1 + o o o o o : & o o & t . $ . o o < 2 2 2 2 2 2 2 C ' Z Z v ' *.o o o #   X o X o ",
"c - R X % ,   2 2 U V 2 < o o o o o . . o < 1 + o o o o o o o o o o o . $ O o o o % 2 2 2 2 2 U A N N N N N = & . X . , o <   , ",
"X ] X o o X $ 2 2 2 2 2 < o o o X X o o o o . X o o o o o o o o o o o ..: X X o o o <   1 2 1 / N 6 7 5 5 T c W 3 4 o o o $ 2   ",
"o . . o o o X , %   3 $ X o % *.* * *.X . o o o o o o < X o o o o . % r p X X o o o o X . . . : 5 R X o o o o . q +.: o o < 3 $ ",
"o o o X t o o o o X X o o o < j 6 l i p < O o o o o X % O o X X o $ 2 1 , o . X o o o R > ..o o o o o o o o o o 8 N c < $ X O R ",
"o o X c = ~ o o o o o o o o X X y 7 N = t o X X o o X X o <   $ o % 2 3 . < 1 $ o o o 5 = : o o o o o o o X . X 5 6 c < $ X X & ",
"o o : - N 9 o o . , o o o . + X . ;.b N [ o o o X % X : c w U + o X < , o < 2 # o o o X : o o o o o o o o < 1 < X & h   % X $ < ",
"< % o y > : o $ 1 2 < o o X . . 3 2 Y K & X o o O $ % S N N K O o o o o o X   % o o o o o o o X $ , o o o ,   , o o < { 3 . $ < ",
". , o o o o X 3 1 3 $ o o o o 4 2 2 2 w ` a % >.* / 2 V m ; > X o o X X X o X X < X o o o o o X 3 + o o o o X o o o & q # X o o ",
"o o X o o o o , . . < $ . o o % 2 2   ) 6 v 2 Z N K $ , X o o o o %   3 3 < o o < X o o o o o X 3 # o o X X o o o o o X X & c > ",
"o . + X o o o & > R O S 0 =.t , 2 2 % ..p #.2 P 8 [ o o o o o o o $ 3   $ . ! , . . o o o o o X 3   X o . . o . $ , o o o 5 N 6 ",
"o X < < X o 9 - N T : - N N 5 o P v @.X o X $ . o o X X o , % . < < X X o O G v i a E o o o o X   + o o o o o < 2 3 % X o : ` > ",
"o , a ,.c 9 6 6 8 : o y = 6 R & = N b #.. o X o X < $ $ X   2 < X X o o o <.l N N l e [ o o o o . . o o o X t < 2 2 + X X p %.< ",
"O   Y N N 6 N T o o o X c - y = N c } 1 3 4 o o <   , . o % # . o o o o 4 V Z b N N N c o o o o . . o o O ) = } 2   O o y X.d , ",
"$ 2 1.N N N 6 y o o o : H N 6 N = ..o ,   3 . o X . o o o o X o . % X $ 2 2 3 F T = 6 T o o o X , X o o E K N 9 < , o o y 6 * X ",
"3 2 2.D N ` [ X o o X & - N N N T o o o ! , X o o o o o o X $ X X , X   2 3 , o X r _ 6 ( y y 3.i $ o o o R > 9 @ X o o & * & o ",
"  2 2 V i a 4 X X ] * = ; N = y t . # Q I ] X o o o o o o X E o o o o . 3 3 X o .   i b b N N N B ;.o o o o : = J p o o ~ - * W ",
". # 2 2 2 2 2 $ . j 6 N y R & X , < i J J w s o o o X . % m L , o o , X % 1 , o o X , + U k Z Z :.O o o o X X R c R o o o [ M W ",
"X .   2 2 2 2 1 . X 5 ( ..o o X $ p 6 X.w l M o o , P Z U k k % o o , X X   < o , X o X < $ $ % X o o , $ 3 $ o o o o o o o o o ",
"< . < 2 1 2 2   . o , $ < O o o o X 5 y > X.( , , # Z N _     . o o o X o X X o X o o o o O X o o < @ $ 1 2   . o X o X % % X o ",
"o X < 3 2 $ . . < , ,   2 3 @ < , o X o O p X $ $ $ &.c [ X . X , , < < o o o o . X X o o , $ X o < < X , 3 2 < ,   % % 2 2 % o ",
"o . % , % . X X . o o , < + < < , o X . o o o X , X O o o o $ % #   < X . o X X $ , % . o X + . o $ < O . $ % X $ 2   % 2 2 4 o ",
"o o X o o o < X X < X , o o o o X . o . X o o X # O o o o o . X X . X X @ < $ , X X . X , , % . O . % < < < o o . + < X % % X o "
};
