/* XPM */
static char *_59ea7074b274ecfae43ad859351b561imJ0L0Bf8TEUh01l[] = {
/* columns rows colors chars-per-pixel */
"64 64 198 2 ",
"   c #1A0C0D",
".  c #19151B",
"X  c #1B141A",
"o  c #2D1413",
"O  c #2E1B14",
"+  c #271818",
"@  c #321A1B",
"#  c #39191A",
"$  c #2C241C",
"%  c #3D2419",
"&  c #0F1224",
"*  c #0D132C",
"=  c #1E1C21",
"-  c #101731",
";  c #141D32",
":  c #1E2127",
">  c #152138",
",  c #2C2A2A",
"<  c #3F2225",
"1  c #332B25",
"2  c #3B332B",
"3  c #252C37",
"4  c #2A2C33",
"5  c #242D3A",
"6  c #2B2E39",
"7  c #2D343B",
"8  c #32373D",
"9  c #34383C",
"0  c #401716",
"q  c #442718",
"w  c #5C251E",
"e  c #532B1C",
"r  c #4B321E",
"t  c #54361F",
"y  c #59341F",
"u  c #602E1F",
"i  c #462625",
"p  c #562826",
"a  c #483727",
"s  c #4A3E2E",
"d  c #533224",
"f  c #5B3426",
"g  c #563C21",
"h  c #5E3E23",
"j  c #5C3228",
"k  c #5B392C",
"l  c #502A35",
"z  c #493F31",
"x  c #5B303C",
"c  c #632C22",
"v  c #6E2823",
"b  c #722C25",
"n  c #7A2D27",
"m  c #7D2F28",
"M  c #663C24",
"N  c #6A3C24",
"B  c #66312D",
"V  c #68352E",
"C  c #643C2B",
"Z  c #693D2D",
"A  c #7C3028",
"S  c #6B3730",
"D  c #7B3D37",
"F  c #7F3F3A",
"G  c #5B4224",
"H  c #58422A",
"J  c #544631",
"K  c #644324",
"L  c #6C4526",
"P  c #65462A",
"I  c #6B432D",
"U  c #664D2D",
"Y  c #6B4B2B",
"T  c #734B2A",
"R  c #74522D",
"E  c #7A532D",
"W  c #7D5B2E",
"Q  c #624635",
"!  c #734232",
"~  c #794935",
"^  c #755132",
"/  c #7C5333",
"(  c #7E5A31",
")  c #1A2641",
"_  c #1C2A43",
"`  c #232F46",
"'  c #212E49",
"]  c #23324C",
"[  c #3B3F41",
"{  c #394149",
"}  c #384450",
"|  c #3E4C59",
" . c #414E5A",
".. c #465563",
"X. c #485663",
"o. c #84312B",
"O. c #8E342E",
"+. c #91352E",
"@. c #823F3C",
"#. c #953831",
"$. c #83592E",
"%. c #82443A",
"&. c #89443F",
"*. c #835434",
"=. c #835C33",
"-. c #8A5E35",
";. c #825339",
":. c #8E533E",
">. c #855C39",
",. c #856232",
"<. c #8C6235",
"1. c #896437",
"2. c #8B633A",
"3. c #8C6A38",
"4. c #936735",
"5. c #946C35",
"6. c #966B38",
"7. c #9A6D3A",
"8. c #987037",
"9. c #9B7139",
"0. c #A3753C",
"q. c #A5793C",
"w. c #AC7D3E",
"e. c #B47E3E",
"r. c #8C4540",
"t. c #8E4841",
"y. c #984D45",
"u. c #965442",
"i. c #935A42",
"p. c #9F5C47",
"a. c #AD554F",
"s. c #B95C54",
"d. c #9E6746",
"f. c #976B42",
"g. c #9F7446",
"h. c #A9684C",
"j. c #AA7543",
"k. c #AE7C41",
"l. c #A9774A",
"z. c #A67B4B",
"x. c #B47D43",
"c. c #B56152",
"v. c #AE7A55",
"b. c #C26159",
"n. c #C76A5A",
"m. c #D1675F",
"M. c #C97D5C",
"N. c #D2795F",
"B. c #D46B61",
"V. c #DA6E64",
"C. c #D77062",
"Z. c #DA7362",
"A. c #DE7C64",
"S. c #E37C66",
"D. c #AE803F",
"F. c #B4803F",
"G. c #B38341",
"H. c #BE8442",
"J. c #BD8B44",
"K. c #BD824A",
"L. c #B78753",
"P. c #BB8351",
"I. c #C18544",
"U. c #C38D46",
"Y. c #C3874A",
"T. c #C48C49",
"R. c #C49047",
"E. c #C88859",
"W. c #D28E5D",
"Q. c #C89A5F",
"!. c #D38666",
"~. c #DF8463",
"^. c #CB9E62",
"/. c #DB9261",
"(. c #E48365",
"). c #E88A67",
"_. c #E98B67",
"`. c #F0896B",
"'. c #E69367",
"]. c #E49A67",
"[. c #EF9668",
"{. c #F39E69",
"}. c #C9A264",
"|. c #D7A465",
" X c #DBA364",
".X c #EBA667",
"XX c #E6A069",
"oX c #ECAE6B",
"OX c #F6A16A",
"+X c #F9A76A",
"@X c #F6AD6B",
"#X c #FAAD6B",
"$X c #FDAE6C",
"%X c #FEAF6C",
"&X c #EEB46F",
"*X c #F4B06D",
"=X c #FFB06D",
"-X c #F6A470",
/* pixels */
"Y.Y.T.R.R.R.R.U.T.U.R.R.T.T.R.U.Y.Y.T.R.R.R.T.T.R.R.T.T.R.R.R.R.R.R.R.R.R.U.I.I.I.I.U.I.I.U.T.U.U.U.R.R.R.T.T.R.R.T.T.T.U.R.R.R.",
"Y.Y.T.T.T.T.Y.U.T.T.T.T.Y.T.U.U.T.Y.Y.T.R.U.U.T.R.R.T.T.R.R.T.T.T.T.U.U.U.I.I.I.I.I.U.I.I.Y.I.I.I.I.I.U.T.T.T.R.R.T.T.T.U.R.I.I.",
"T.T.U.U.U.Y.I.U.R.Y.Y.Y.Y.Y.Y.Y.T.T.Y.I.I.I.I.Y.T.R.U.R.R.T.Y.Y.Y.I.I.I.I.I.I.I.U.Y.Y.Y.Y.Y.I.I.I.I.I.U.R.R.T.U.U.Y.T.U.U.U.H.I.",
"T.T.R.U.I.I.I.U.T.Y.Y.Y.Y.I.I.I.I.I.I.I.H.H.I.Y.Y.Y.Y.T.Y.Y.Y.Y.Y.I.I.I.I.Y.I.I.Y.Y.Y.Y.Y.Y.Y.U.U.U.U.U.U.T.Y.Y.Y.Y.Y.I.I.I.H.I.",
"T.T.R.U.I.I.U.T.Y.Y.Y.Y.Y.Y.I.I.I.I.I.I.I.I.I.T.Y.Y.Y.T.Y.Y.Y.Y.Y.Y.I.I.Y.Y.Y.Y.Y.Y.Y.Y.Y.T.T.R.R.R.U.T.U.T.Y.Y.Y.Y.I.H.H.H.I.U.",
"R.T.U.U.I.I.R.T.T.Y.Y.Y.Y.Y.Y.Y.U.U.I.I.U.R.R.R.R.T.T.U.Y.Y.Y.Y.Y.T.R.R.T.T.T.T.T.T.T.U.U.U.U.U.U.U.U.U.R.T.T.T.Y.I.I.H.I.I.U.R.",
"T.T.R.U.I.U.R.R.U.T.T.T.T.T.Y.Y.Y.T.U.R.R.R.R.R.R.R.R.R.T.Y.Y.Y.T.R.R.R.R.R.R.R.R.R.R.R.U.I.I.H.H.I.I.I.I.U.R.R.I.H.H.I.I.U.T.R.",
"T.T.U.I.I.I.U.R.R.R.R.R.R.R.R.T.Y.Y.R.R.R.R.R.R.U.R.T.T.R.R.T.U.R.T.T.R.R.R.R.U.U.R.R.R.U.I.H.I.I.I.I.I.I.Y.T.R.I.H.I.U.U.Y.R.R.",
"U.U.T.I.I.I.T.R.R.R.R.R.U.U.U.U.U.I.U.U.R.R.R.T.T.T.T.T.R.R.R.R.R.T.T.R.R.R.U.I.U.R.R.R.R.U.I.Y.Y.Y.T.Y.Y.Y.Y.U.U.U.R.R.T.T.R.R.",
"R.U.Y.Y.Y.Y.Y.R.R.U.U.I.I.I.I.I.I.I.I.I.U.U.R.T.T.U.R.R.R.R.R.R.U.U.U.U.U.R.R.U.U.U.R.R.R.U.Y.Y.Y.Y.Y.Y.Y.Y.Y.R.R.R.R.T.Y.Y.T.T.",
"R.R.Y.Y.Y.Y.T.T.I.I.I.I.H.H.I.I.Y.I.I.I.I.Y.T.U.R.R.R.U.U.Y.Y.Y.I.I.I.I.I.I.U.R.U.U.R.R.R.R.Y.Y.Y.Y.Y.Y.Y.Y.Y.R.R.R.R.T.Y.Y.T.R.",
"R.T.Y.Y.T.T.T.Y.Y.I.I.Y.Y.Y.Y.Y.Y.Y.Y.Y.Y.Y.Y.I.J.J.w.=.W W ( W ,.K.K.H.H.H.I.T.R.R.R.R.R.R.T.T.T.T.T.T.Y.Y.Y.R.R.R.R.R.Y.Y.Y.R.",
"R.T.Y.T.R.R.Y.Y.Y.Y.Y.Y.Y.Y.Y.Y.Y.Y.Y.Y.Y.Y.Y.0.R P R v.K.P.P.P.l.P P =.7.x.Y.Y.U.R.R.R.R.R.R.R.R.R.R.R.T.T.U.R.T.T.R.T.Y.Y.Y.T.",
"R.T.Y.T.R.R.Y.Y.Y.Y.Y.Y.Y.Y.Y.Y.Y.Y.Y.Y.Y.K.<.2.L.|. X%X%X%X%X%X@X X Xz.2.=.x.Y.U.R.R.R.R.R.R.R.R.R.R.R.T.U.U.R.U.U.R.Y.Y.Y.Y.U.",
"U.T.U.U.T.U.Y.Y.Y.Y.Y.Y.Y.Y.Y.Y.Y.Y.Y.Y.K.<.l.oX*X#X%X%X%X=X%X%X%X#X#X*X&XE.E J.R.R.R.R.R.R.R.R.T.R.R.T.T.Y.Y.T.R.R.U.Y.Y.Y.T.R.",
"Y.Y.T.R.T.T.Y.Y.Y.Y.Y.Y.Y.Y.Y.Y.Y.Y.Y.K.4.g.oX#X%X%X%X=X%X%X%X%X%X=X=X#X.X^.2.q.R.R.R.R.R.R.R.T.T.T.T.Y.Y.Y.Y.Y.T.R.T.T.U.T.Y.Y.",
"Y.Y.T.R.R.T.T.R.T.Y.Y.Y.Y.Y.Y.Y.Y.Y.Y.H.=.Q.*X%X%X%X=X%X=X=X=X=X%X{.{._.n.=.^ ,.R.R.R.R.U.Y.Y.U.T.R.T.Y.Y.Y.Y.Y.T.R.T.T.R.U.Y.Y.",
"Y.Y.Y.R.R.R.R.R.R.R.T.Y.Y.Y.T.T.U.T.U.q.2..X%X%X=X=X=X%X+X_._._.(.B.V.(.'.^.f.R G.R.R.R.T.Y.Y.T.T.R.U.Y.Y.Y.Y.Y.Y.U.U.T.Y.R.U.U.",
"Y.Y.Y.U.R.R.R.R.R.R.U.Y.Y.U.R.R.R.R.U.8.f.*X%X=X=X=X=X%X%XOX[.A.A._.OX+X%X@XoXR 0.U.R.R.T.Y.T.R.R.R.R.T.Y.Y.Y.Y.T.R.R.T.Y.U.U.U.",
"T.Y.T.T.T.T.R.R.R.R.R.T.Y.T.U.U.R.R.U.7.f.*X%X=X=X=X=X%X%X=X=X%X%X%X=X+X'._.~.Y 0.U.R.R.R.U.R.R.R.R.R.T.Y.Y.T.T.U.R.R.R.U.I.I.I.",
"U.T.U.Y.Y.Y.T.R.R.R.R.U.T.Y.Y.I.U.R.J.=.l.=X%X%X=X=X=X%X%X%X%X%X%X%X[.S.%.r.a.E J.R.R.R.R.R.R.R.R.R.R.R.T.T.U.R.R.R.R.R.R.I.I.I.",
"R.R.R.T.Y.T.T.R.R.R.R.R.U.T.Y.Y.Y.T.w.f A.%X%X%X%X=X=X=X=X=X%X%X%X@XS.&.< p %.,.U.R.R.R.R.R.R.R.R.R.R.R.R.R.U.R.R.U.U.U.R.I.I.I.",
"R.R.R.R.T.T.T.R.R.R.T.T.R.R.Y.Y.Y.U.w.f B.{.%X%X%X%X=X=X=X=X=X=X%X%XN.p l < ! -.I.R.R.R.R.R.R.R.R.R.U.U.U.I.I.U.R.U.I.I.R.U.I.I.",
"T.R.R.R.R.R.R.R.R.R.T.T.R.R.T.Y.T.U.q.f m.Z.{.%X%X%X%X%X%X%X%X%X%X*Xz.i x < j.=.x.U.R.T.T.U.R.R.R.R.T.Y.I.I.I.U.R.U.I.I.U.R.U.T.",
"R.R.U.T.R.R.U.R.R.R.R.R.R.R.R.R.R.R.G.I s.B.Z.(.+X%X=X=X%X%X%X%X#X*Xz.@ i k L.H 9.U.R.R.T.T.U.U.R.R.T.Y.I.H.I.U.R.R.I.I.R.T.T.R.",
"R.R.R.R.R.U.T.T.R.R.R.U.U.R.R.R.R.U.U.6.%.V.B.B.A.(.{.+X_.~.(.`.`.`.N.y.~ L.2.<.G.T.T.T.T.Y.Y.Y.T.R.R.R.U.I.I.U.R.R.R.R.R.T.Y.T.",
"R.R.R.U.T.T.Y.T.R.R.R.U.U.U.U.R.T.Y.Y.K.*.%.b.B.B.B.C.Z.V.V.b.r.&.&.t.@.i. X=.<.G.Y.Y.Y.Y.Y.Y.T.U.R.R.R.R.R.R.R.R.R.R.R.R.T.Y.T.",
"R.R.T.Y.Y.Y.Y.Y.U.U.U.U.R.U.U.Y.Y.Y.Y.Y.x.<.~ s.m.B.b.s.F B V D %.j t j c.M.P.=.=.H.T.T.T.T.R.R.R.R.R.R.R.R.R.R.R.T.T.T.R.R.U.R.",
"R.R.R.Y.Y.Y.Y.I.I.Y.Y.Y.U.U.Y.Y.Y.Y.Y.Y.Y.Y.0.h %.y.Z g ! c.y.t.!.h.-./ @ d Y P g G.U.R.R.R.R.R.R.R.R.R.R.R.R.U.T.Y.Y.Y.R.R.T.T.",
"T.R.R.T.Y.Y.Y.I.I.I.Y.I.I.I.I.I.I.Y.T.T.Y.Y.Y.J.5.W w.G.Y /.A.V p.].d.R r ^ / P G G.U.R.R.R.R.R.T.T.R.R.T.T.U.Y.Y.Y.Y.Y.T.U.T.T.",
"R.R.T.T.R.T.Y.I.I.I.I.H.I.I.I.I.I.I.U.T.Y.Y.Y.T.R.U.U.0.2.].:.-.C A.].^.}.^.}.L.Y G.U.R.U.T.Y.T.T.T.R.R.Y.Y.T.Y.Y.Y.Y.Y.Y.Y.R.R.",
"R.R.R.R.R.R.U.T.I.I.H.I.I.Y.Y.Y.Y.Y.Y.Y.Y.Y.Y.U.R.U.J.U a a a 6.Y i C U U U U U 8.U.R.R.U.T.Y.U.U.U.R.R.T.T.T.T.T.T.U.Y.Y.Y.T.R.",
"R.R.R.T.R.R.R.R.U.U.I.Y.Y.Y.Y.Y.Y.Y.Y.Y.Y.Y.Y.R.R.U.W 4 _ ) 4 G P U w.G.G.F.e.e.H.U.U.U.R.R.R.R.R.R.R.R.R.R.R.R.R.R.R.T.Y.Y.Y.T.",
"R.R.T.T.R.R.R.R.R.R.R.R.R.U.T.Y.Y.Y.Y.Y.Y.Y.U.R.R.w.1 ' ] ] 6 Q i./ <.J.U.I.I.U.U.U.U.U.R.R.R.R.R.R.R.R.R.R.R.R.R.R.R.R.T.U.T.Y.",
"R.T.T.R.R.R.U.U.U.R.R.R.R.R.R.R.U.T.T.T.T.U.R.R.R.R 3 ] ] ] ] _ . % / 0.U.U.R.R.I.I.I.U.U.T.T.T.U.U.U.I.I.I.I.U.U.R.R.R.R.R.Y.Y.",
"R.U.T.R.R.R.I.H.I.U.T.R.R.R.R.R.R.R.R.R.R.R.R.U.q.2 ` ] ] ] ] ) & O ! =.H.R.R.R.I.H.H.I.Y.Y.Y.I.I.I.H.H.H.I.I.I.I.R.R.U.U.R.T.T.",
"R.R.R.R.U.U.U.I.I.U.R.U.U.U.R.R.R.R.R.R.R.R.U.J.5., ] ] ] ] ' - . / *.C 0.U.R.U.I.I.H.I.Y.I.I.H.H.H.H.H.I.I.Y.I.I.U.R.T.T.R.R.T.",
"R.R.R.U.I.I.U.U.U.R.U.I.I.I.U.R.R.R.R.R.R.R.U.G.U 5 ] ] ] ] ) * $ K.*.;.<.8.J.T.Y.I.I.I.H.H.H.H.I.I.I.I.Y.Y.Y.I.U.Y.T.T.T.R.R.R.",
"R.R.U.I.I.I.U.R.R.T.U.I.I.I.I.I.T.T.T.R.R.R.U.G.H ` ] ] ' > - & P I.,.u.i.q $.G.Y.Y.Y.I.I.I.I.Y.Y.Y.Y.Y.Y.Y.Y.T.U.T.U.T.R.R.R.R.",
"R.R.R.U.I.U.U.U.T.Y.I.I.H.H.I.I.I.I.Y.U.R.R.R.w.d ; > & * * * + 0.U.G.h p o.b y -.x.Y.Y.Y.Y.Y.Y.Y.Y.Y.Y.Y.Y.Y.T.R.R.T.T.U.R.R.R.",
"U.U.U.R.R.R.R.Y.Y.I.I.I.I.I.I.I.I.I.Y.T.R.R.J.,.% Z o 0 . . + 3.J.U.U.G b +.O.o.c M 7.7.K.Y.Y.Y.Y.Y.Y.Y.Y.Y.Y.U.R.R.Y.Y.R.R.R.R.",
"I.I.I.R.T.U.T.Y.Y.I.I.I.U.U.R.U.U.I.Y.Y.T.T.K.=.1.;.d c # W q.J.U.U.U.0.M o.+.#.v o 1 z j.Y.Y.Y.Y.I.I.I.I.I.I.R.R.R.Y.Y.R.R.R.R.",
"I.I.U.U.T.T.Y.Y.Y.Y.Y.Y.T.R.R.R.R.R.T.T.R.T.x.I XXW.E.L.>.=.q.U.R.R.R.U.0.N n m # o = , T j.Y.I.H.H.H.I.I.I.I.U.U.R.T.T.R.T.Y.T.",
"U.U.R.R.R.R.Y.Y.Y.Y.Y.Y.T.R.R.R.U.U.U.R.R.U.J.-.u.d./ E.-Xf.3.U.R.R.R.U.J.q.y o # @ : 3 9 s ( w.H.H.I.I.I.I.I.I.Y.T.R.R.R.T.Y.Y.",
"R.T.T.R.R.R.U.T.T.Y.Y.T.R.R.T.U.I.I.U.U.T.R.J.,.o >.h.i C ! / G.U.T.T.Y.U.J.0.r O . 5 7 .. .[ s ,.w.U.U.U.R.R.U.I.I.U.R.R.T.Y.Y.",
"R.R.R.R.U.R.R.R.R.R.R.R.R.R.U.I.I.H.I.U.U.U.J.=.  I d @ O E S -.J.Y.Y.Y.U.U.U.D.q.a 4 $ [ | X. .9 a 3.G.J.R.R.R.I.I.I.U.T.U.U.U.",
"R.R.U.I.I.U.R.R.R.R.R.R.R.R.U.U.U.I.H.I.U.R.U.9.d Z @ # r 6.! I G.T.Y.Y.T.T.Y.Y.J.1.J 5.R z [  ...| 7 J 3.J.T.R.U.I.I.U.T.U.R.U.",
"R.R.U.I.I.I.R.R.T.T.R.R.R.T.T.U.U.I.I.H.U.R.U.G.=.I r G 4.H.*.Z =.U.T.T.R.T.Y.Y.U.J.D.U.J.q.1.J 8 | ..} s k.Y.T.R.U.U.Y.T.R.T.T.",
"T.T.U.U.I.U.U.T.Y.Y.T.R.R.R.T.T.Y.Y.I.I.U.U.J.7./ T 0.x.H.H.$.%.u.W U.R.R.U.Y.T.R.R.U.R.R.R.J.w.1.a 8 { U J.T.T.R.R.U.Y.Y.T.T.T.",
"R.T.R.R.R.R.U.Y.Y.Y.T.R.R.R.R.T.Y.Y.Y.I.I.H.<.k v.q E K.H.7.e B D h G.U.U.R.U.U.T.U.R.R.R.R.R.U.Y.k.( H G.R.R.R.R.R.U.Y.Y.U.R.R.",
"R.R.R.R.R.R.R.U.T.U.T.T.U.R.R.T.Y.Y.Y.I.H.<.e p Z b q q.U.E b b w c <.Y.Y.T.R.R.T.U.R.R.R.R.R.U.Y.Y.U.R.R.R.R.R.R.R.R.U.U.U.I.I.",
"R.T.T.U.R.R.R.U.I.U.U.I.I.U.R.T.Y.Y.Y.U.G.M m O.n b L G.U.E v +.#.c <.Y.Y.T.T.T.T.T.R.R.R.R.R.U.Y.Y.U.R.T.R.R.T.T.T.R.R.R.I.I.I.",
"R.R.T.U.U.R.U.I.I.I.U.I.H.H.U.U.I.I.I.U.5.u O.O.O.w 8.U.U.E v O.O.A T G.U.U.I.I.I.I.U.R.R.R.R.U.Y.T.R.R.R.R.R.T.Y.Y.T.U.R.U.I.I.",
"R.T.Y.I.I.I.H.H.I.U.R.I.I.H.I.U.I.I.H.K.T A +.+.m L H.Y.U.E v O.+.o.M G.U.I.H.H.H.H.I.U.R.R.R.R.T.R.R.R.R.U.U.T.Y.Y.Y.U.U.U.I.U.",
"U.Y.I.H.H.H.H.I.R.R.R.U.I.I.I.I.H.I.I.K.T b n n b E J.T.U.=.c n n n L G.T.Y.I.I.H.H.H.I.R.R.R.R.T.T.R.R.U.I.I.I.Y.Y.U.R.U.I.I.U.",
"Y.Y.I.H.H.H.I.I.R.R.R.U.H.H.H.H.I.U.U.T.j.T K K T k.R.R.R.G.E K K L 0.T.Y.Y.Y.I.I.I.H.I.U.R.R.U.U.U.R.R.U.I.I.I.T.T.R.R.U.H.I.U.",
"Y.Y.Y.I.H.I.U.R.R.R.U.U.I.H.H.H.I.U.R.U.T.T.R.R.R.R.R.R.R.R.T.R.U.T.U.Y.Y.Y.T.U.U.I.I.I.I.U.I.I.I.Y.R.R.R.U.I.I.I.R.R.R.U.I.U.R.",
"Y.Y.Y.Y.I.Y.T.R.U.U.I.I.I.H.I.I.U.U.Y.Y.I.U.R.R.R.R.R.R.R.U.U.R.R.R.R.T.Y.Y.U.R.R.Y.I.I.I.I.I.I.I.I.R.R.R.R.U.I.I.U.R.R.U.I.I.U.",
"T.Y.Y.Y.Y.Y.Y.T.U.U.I.H.I.U.U.R.U.U.I.I.I.I.I.R.R.R.R.U.Y.I.I.U.R.R.T.U.T.Y.T.R.R.R.T.Y.Y.I.I.I.I.U.R.R.R.U.R.U.I.U.R.R.R.U.U.U.",
"R.T.Y.Y.Y.Y.Y.Y.T.U.I.I.U.R.R.R.T.U.I.I.I.I.I.U.R.T.I.I.I.I.I.T.R.R.T.R.U.Y.T.R.R.R.R.R.T.T.Y.T.R.R.R.T.Y.Y.T.R.R.R.R.R.R.R.R.R.",
"T.T.T.Y.Y.Y.Y.Y.T.R.U.T.T.U.R.R.R.R.I.I.I.I.I.U.T.Y.I.I.I.Y.Y.T.R.R.R.U.R.R.U.R.R.R.R.R.R.U.U.R.R.T.T.Y.Y.Y.Y.T.R.U.R.R.T.T.U.R.",
"R.U.T.Y.Y.Y.T.T.T.T.T.Y.Y.Y.T.T.T.R.U.U.U.U.U.T.T.Y.I.I.U.R.T.R.T.T.T.T.R.R.R.R.R.R.U.R.R.T.T.U.R.T.T.U.T.Y.Y.T.T.Y.T.T.Y.Y.T.R.",
"R.T.T.T.T.T.U.R.R.R.R.T.T.Y.T.T.T.R.R.T.R.R.R.R.T.U.U.R.R.R.T.T.T.Y.T.U.R.R.R.R.T.T.T.T.R.R.T.T.R.T.T.U.T.T.T.U.T.Y.Y.T.Y.Y.T.R.",
"R.R.R.R.R.R.T.R.R.T.R.T.R.R.R.R.R.R.R.T.R.R.R.R.Y.U.R.R.R.R.T.U.R.T.U.U.T.T.T.T.U.U.T.U.T.T.T.T.U.T.T.T.T.T.R.R.T.Y.T.U.T.T.U.R."
};
