/* XPM */
static char *e5ffafa5d63f4b03ca168a4bb649b5fe8Wd8eLNdh0MDNqbZ[] = {
/* columns rows colors chars-per-pixel */
"64 64 202 2 ",
"   c #1A1215",
".  c #240E12",
"X  c #291314",
"o  c #23151A",
"O  c #261B1D",
"+  c #351717",
"@  c #311A16",
"#  c #3A1E1A",
"$  c #382618",
"%  c #0E1120",
"&  c #0D132B",
"*  c #121323",
"=  c #131B32",
"-  c #351C22",
";  c #162138",
":  c #272627",
">  c #3F2623",
",  c #3B3225",
"<  c #3A342B",
"1  c #252A33",
"2  c #282D37",
"3  c #2F3438",
"4  c #393B3B",
"5  c #431B17",
"6  c #44251C",
"7  c #482419",
"8  c #452D1C",
"9  c #4B2C1A",
"0  c #57271D",
"q  c #542C1D",
"w  c #47341B",
"e  c #4B341C",
"r  c #55351E",
"t  c #63231F",
"y  c #45252C",
"u  c #5A2D21",
"i  c #5D2D2B",
"p  c #483626",
"a  c #533423",
"s  c #5D3D22",
"d  c #583529",
"f  c #5D392A",
"g  c #4A3F31",
"h  c #5D303E",
"j  c #632822",
"k  c #6D2923",
"l  c #732C25",
"z  c #7A2D27",
"x  c #7D2E29",
"c  c #623E21",
"v  c #65332E",
"b  c #653B2C",
"n  c #69392E",
"m  c #7C3028",
"M  c #6A3732",
"N  c #743A35",
"B  c #7C3C37",
"V  c #5C4123",
"C  c #59452A",
"Z  c #5A4731",
"A  c #644324",
"S  c #6B4626",
"D  c #6A4927",
"F  c #65452A",
"G  c #6C432E",
"H  c #654C2D",
"J  c #6C4A2A",
"K  c #734A29",
"L  c #734E2C",
"P  c #6C512D",
"I  c #75532C",
"U  c #79542E",
"Y  c #7D5C2E",
"T  c #6A4A33",
"R  c #744432",
"E  c #784433",
"W  c #744C31",
"Q  c #7C4835",
"!  c #7E4039",
"~  c #6A5332",
"^  c #725631",
"/  c #7C5433",
"(  c #7D5B32",
")  c #1D2741",
"_  c #1C2A43",
"`  c #212F48",
"'  c #2D3742",
"]  c #23324C",
"[  c #353E46",
"{  c #3A4249",
"}  c #3B4754",
"|  c #3E4954",
" . c #414E5C",
".. c #45515E",
"X. c #465464",
"o. c #4A5766",
"O. c #86322B",
"+. c #8D342E",
"@. c #91362F",
"#. c #963731",
"$. c #963831",
"%. c #845A2F",
"&. c #89453E",
"*. c #84493A",
"=. c #8D4A3F",
"-. c #825336",
";. c #835C33",
":. c #895E35",
">. c #856233",
",. c #8C6534",
"<. c #8D633A",
"1. c #886439",
"2. c #916435",
"3. c #936A36",
"4. c #976739",
"5. c #966B3A",
"6. c #9B6B3B",
"7. c #9A7237",
"8. c #9D713B",
"9. c #A16F3D",
"0. c #A3743B",
"q. c #AE773D",
"w. c #A4793C",
"e. c #AA7C3E",
"r. c #B47D3F",
"t. c #8D4740",
"y. c #914743",
"u. c #934C42",
"i. c #8F5141",
"p. c #965842",
"a. c #985E44",
"s. c #A24F4A",
"d. c #A1504A",
"f. c #B65C53",
"g. c #9C6445",
"h. c #9C6D42",
"j. c #9E7245",
"k. c #A7644A",
"l. c #AA7640",
"z. c #AD7941",
"x. c #AC7A4A",
"c. c #B57E44",
"v. c #B97F41",
"b. c #B27D4C",
"n. c #B86553",
"m. c #BC6055",
"M. c #A27A54",
"N. c #B87855",
"B. c #C46159",
"V. c #CC655D",
"C. c #D26D5F",
"Z. c #C57A57",
"A. c #D37D5E",
"S. c #D56A62",
"D. c #DA6E63",
"F. c #D67262",
"G. c #DA7563",
"H. c #D67860",
"J. c #DC7A63",
"K. c #E17E64",
"L. c #AE803F",
"P. c #AF8140",
"I. c #B68642",
"U. c #BE8442",
"Y. c #BD8A44",
"T. c #BE834A",
"R. c #AE8F58",
"E. c #BC8251",
"W. c #BC8954",
"Q. c #B9935B",
"!. c #C18644",
"~. c #C38D46",
"^. c #C3874A",
"/. c #C48B49",
"(. c #C49047",
"). c #C48956",
"_. c #DC955F",
"`. c #DA8965",
"'. c #D79964",
"]. c #DC9C63",
"[. c #E38465",
"{. c #E58A65",
"}. c #E98D67",
"|. c #F08A6B",
" X c #E49667",
".X c #E89766",
"XX c #F09768",
"oX c #F39E6A",
"OX c #CAA063",
"+X c #D5A264",
"@X c #DCA264",
"#X c #EDA969",
"$X c #F5A16A",
"%X c #F9A76B",
"&X c #F5AC6B",
"*X c #FAAD6B",
"=X c #FDAE6C",
"-X c #F7B16D",
";X c #FEB26D",
":X c #EAB670",
">X c #F0B771",
",X c #FCB474",
/* pixels */
"^.^./.(.(.(.(.~./.~.(.(././.(.~.^.^./.(.(.(././.(.(././.(.(.(.(.(.(.(.(.(.~.!.!.!.!.~.!.!.~./.~.~.~.(.(.(././.(.(./././.~.(.(.(.",
"^.^./././././.~././././.^./.~.~./.^.^./.(.~.~./.(.(././.(.(././././.~.~.~.!.!.!.!.!.~.!.!.^.!.!.!.!.!.~./././.(.(./././.~.(.!.!.",
"/./.~.~.~.^.!.~.(.^.^.^.^.^.^.^././.^.!.!.!.!.^./.(.~.(.(./.^.^.^.!.!.!.!.!.!.!.~.^.^.^.^.^.!.!.!.!.!.~.(.(./.~.~.^./.~.~.~.U.!.",
"/./.(.~.!.!.!.~./.^.^.^.^.!.!.!.!.!.!.!.U.U.!.^.^.^.^./.^.^.^.^.^.!.!.!.!.^.!.!.^.^.^.^.^.^.^.~.~.~.~.~.~./.^.^.^.^.^.!.!.!.U.!.",
"/./.(.~.!.!.~.^.^.^.^.^.^.^.!.!.!.!.!.!.!.!.!./.^.^.^./.^.^.^.^.^.^.!.!.^.^.^.^.^.^.^.^.^././.(.(.(.~./.~./.^.^.^.^.!.U.U.U.!.~.",
"(./.~.~.!.!.(././.^.^.^.^.^.^.^.~.~.!.!.~.(.(.(.(././.~.^.^.^.^.^./.(.(./././.^./././.~.~.~.~.~.~.~.~.~.(./././.^.!.!.U.!.!.~.(.",
"/./.(.~.!.~.(.(.~./.^./././.^.^.^./.~.(.(.(.(.(.(.(.(.(./.^.^.^./.(.(.(.(.(.(.(.(.(.(.(.~.!.!.U.U.!.!.!.!.~.(.(.!.U.U.!.!.~./.(.",
"/./.~.!.!.!.~.(.(.(.(.(.(.(.(./.^.^.(.(.(.(.(.(.~.(././.(.(./.~.~./.(.(.(.(.~.~.~.(.(.(.~.!.U.!.!.!.!.!.!.^./.(.!.U.!.~.~.^.(.(.",
"~.~./.!.!.!./.(.(.(.(.(.~.~.~.~.~.!.~.~.(.(.(./././././.(.(.(.(.(././.(.(.(.~.!.~.(.(.(.(.~.!.^.^.^./.^.^.^.^.~.~.~.(.(././.(.(.",
"(.~.^.^.^.^.^.(.(.~.~.!.!.!.!.!.!.!.!.!.~.~.(././.~.(.(.(.(.(.(.~.~.~.(.~.(.(.~.~.~.(.(.(.~.^.^.^.^.^.^.^.^.^.(.(.(.(./.^.^././.",
"(.(.^.^.^.^././.!.!.!.!.U.U.!.!.^.!.!.!.!.^./.(.(.(.(.~.~.^.^.^.!.!.!.!.!.!.~.(.(.~.(.(.(.~.^.^.^.^.^.^.^.^.^.(.(.(.(./.^.^./.(.",
"(./.^.^./././.^.^.!.!.^.^.^.^.^.^.^.^.^.^.^.^./.(.(././.~./.^.^.!.^.^.!.U.I.z.;.Y Y Y Y ,.I.Y.!././././.^.^.^.(.(.(.(.~.^.^.^.(.",
"(./.^./.(.(.^.^.^.^.^.^.^.^.^.^.^.^.^.^.^.^.^.^.^.~./.^./.(.(.~.!.^.T.0.L F I b.E.E.T.E.j.J J ;.w.I.~.~././.~.(././.(./.^.^.^./.",
"(./.^./.(.(.^.^.^.^.^.^.^.^.^.^.^.^.^.^.^.^.^.^.^./././.~.(.(.(.~.Y.6.-.).@X@X*X=X=X=X=X&X@X+Xb.;.>.P.~./.~.(.(.~.~.(.^.^.^.^.~.",
"~./.~.~./.~.^.^.^.^.^.^.^.^.^.^.^.^.^.^.^.^.^.^.^./.(.(.~.(.(.(.Y.7.h.#X&X*X*X=X=X=X;X=X=X*X*X-X>XW.;.Y.^.^.^./.(.(.~.^.^.^./.(.",
"^.^./.(././.^.^.^.^.^.^.^.^.^.^.^.^.^.^.^.^.^.^./.~.(.(.~.(.(.(.3.h.-X*X=X;X=X=X=X=X=X=X=X;X;X*X#X].:.0.^.^.^.^./.(.(./.~./.^.^.",
"^.^./.(.(././.(./.^.^.^.^.^.^.^.^.^.^./.~.~.~.(.(.~.(.(.~.~.(.(.V _.;X=X=X;X;X=X;X;X;X;X*XoXoX}.n.<.L :.^.^.^.^./.(././.(.~.^.^.",
"^.^.^.(.(.(.(.(.(.(./.^.^.^././.~././.(.(.~.~.(.(.(.(.~.^.~.~.7.1.#X=X=X;X;X=X;X%X}.}.{.[.F.D.K. X].h./ c.^.^.^.^.~.~./.^.(.~.~.",
"^.^.^.~.(.(.(.(.(.(.~.^.^.~.(.(.(.(.(.(.~.~.(.(.(.(.(.(./.~.~.I x.-X=X;X;X;X=X=X=X$XXXJ.G.}.oX%X-X*X:X( l.^.^.^./.(.(./.^.~.~.~.",
"/.^././././.(.(.(.(.(./.^./.~.~.(.(.(./.^.^.~.(.(.~.(.(.(.(.~.I x.-X=X=X;X;X;X=X;X;X;X=X=X;X;X%X}.{.`.W z.^.^./.~.(.(.(.~.!.!.!.",
"~./.~.^.^.^./.(.(.(.(.~./.^.^.!.~.(.(./.^.^.(.(./.^.~.(.(.~.I.I E.-X=X=X;X;X;X=X=X=X=X=X=X=XXXG.t.s.d./ Y.~.~.(.(.(.(.(.(.!.!.!.",
"(.(.(./.^././.(.(.(.(.(.~./.^.^.^./.(.(.~.~.(.~.^.^./.(.(.^.0.R J.*X=X=X=X;X;X;X=X;X=X=X=X=XJ.y.- v ! ;.~.~.~.(.(.~.~.~.(.!.!.!.",
"(.(.(.(./././.(.(.(././.(.(.^.^.^./.~.~.~.!.~.~.~./.(.(./.^.0.R C.oX;X=X=X=X;X;X;X;X;X=X=X=XA.i y y E ,.!.U.!.~.(.~.!.!.(.~.!.!.",
"/.(.(.(.(.(.(.(.(.(././.(.(./.^./.~.!.!.!.!.U.!.(.(.(.(.^.^.9.E V.G.oX*X=X=X=X=X=X=X=X=X=X,XE.- h > x./ I.U.!.~.(.~.!.!.~.(.~./.",
"(.(.~./.(.(.~.(.(.(.(.(.(.(.(.(.(.(.~.~.~.~.!.!.(.(.(.~.^.!.l.R m.S.S.[.%X=X=X;X=X=X=X=X*X;XE.o y d Q.F 0.U.U.~.(.(.!.!.(././.(.",
"(.(.(.(.(.~././.(.(.(.~.~.(.(.(.(.~.~.~.~.~.~.~.(.(.(./.!.U.!./ =.D.S.S.K.[.oX%X{.[.[.|.|.|.H.y.*.E.<.>.I.!.!.(.(.(.(.(.(./.^./.",
"(.(.(.~././.^./.(.(.(.~.~.~.~.(./.^.^.^.!.!.~.(.(.(.(./.^.^.^.c.-.=.f.S.S.S.F.F.D.D.B.&.&.&.t.&.p..X;.3.Y.(.~.(.(.(.(.(.(./.^./.",
"(.(./.^.^.^.^.^.~.~.~.~.(.~.~.^.^.^.^.^.^.^./.(.(.(.(.(./.^.^.^.c.:.Q f.V.S.B.f.B v v N &.6 s d m.A.E.:.Y (.(.(.(./././.(.(.~.(.",
"(.(.(.^.^.^.^.!.!.^.^.^.~.~.^.^.^.^.^.^.^.^.^.(.(.(.(.(.(.~././.~.~.e.A *.u.n a *.n.d.&.[.i.2.;.# a F F w ~.(.~./.^.^.^.(.(././.",
"/.(.(./.^.^.^.!.!.!.^.!.!.!.!.!.!.^././.^.^.^./.(.(.(.(.(.(.(.~.~.~./.~.3.Y e.I.I '.F.N a. Xa.I a W / J e ^.~.^.^.^.^.^./.~././.",
"(.(././.(./.^.!.!.!.!.U.!.!.!.!.!.!.~./.^.^.^./.(.(.(.(./.(.(./.^./././.~.~.(.0.5.].p.;.-.`. XOXOXOXOXR.V ^./.^.^.^.^.^.^.^.(.(.",
"(.(.(.(.(.(.~./.!.!.U.!.!.^.^.^.^.^.^.^.^.^.^.~.(.(.(.(.(.(.(.~./././.(.(.~.I.P p p $ w.I a b H H H H P 3./././././.~.^.^.^./.(.",
"(.(.(./.(.(.(.(.~.~.!.^.^.^.^.^.^.^.^.^.^.^.^.(.(.~.~.~.(.(.(.~.~.(.(.(.~.I.;.1 _ _ 1 F F J w.I.I.I.I.I.~.(.(.(.(.(.(./.^.^.^./.",
"(.(././.(.(.(.(.(.(.(.(.(.~./.^.^.^.^.^.^.^.~.(.(.(.!.!.~.(.(.~.~.(.(.~.~.0., ` ] ] 2 T g.h.I Y.~.(.(.(.(.(.(.(.(.(.(.(./.~./.^.",
"(././.(.(.(.~.~.~.(.(.(.(.(.(.(.~././././.~.(.(.(.(.!.^.^./.(.(.(.~.~.!.~.( 1 ] ] ] ] ) : k.s I.!.~.~.!.!.!.!.~.~.(.(.(.(.(.^.^.",
"(.~./.(.(.(.!.U.!.~./.(.(.(.(.(.(.(.(.(.(.(.(.(.(.(.~.^.^./././.^.^.!.!.e.< ] ] ] ] ] ) % @ -.;.U.U.U.U.U.!.!.!.!.(.(.~.~.(././.",
"(.(.(.(.~.~.~.!.!.~.(.~.~.~.(.(.(.(.(.(.(.(.(.~.(.(.~.~.~.~.^.^.^.^.^.^.8.: ] ] ] ] ` = O $ -.I v.U.U.U.!.!.^.!.!.~.(././.(.(./.",
"(.(.(.~.!.!.~.~.~.(.~.!.!.!.~.(.(.(.(.(.(.(.~.!.~.!.!.!.!.!.^.^.^.^.^.^.C 2 ] ] ] ] ) & p 2.G ;.0.U.!.!.^.^.^.!.~.^./././.(.(.(.",
"(.(.~.!.!.!.~.(.(./.~.!.!.!.!.!./././.(.(.(.(.(.!.!.!.U.U.U.!.^.^./.~.~., ] ] ] _ ; = * A q.J <.2.^.^.^.^.^.^./.~./.~./.(.(.(.(.",
"(.(.(.~.!.~.~.~./.^.!.!.U.U.!.!.!.!.^.~.(.(.(.(.~.!.!.!.!.U.U.!.~.(.(.L.8 = ; & & & & O 4.T.f N./ U.^.^.^.^.^./.(.(././.(.(.(.(.",
"~.~.~.(.(.(.(.^.^.!.!.!.!.!.!.!.!.!.^./.~.(.(.~.~.~.~.(.~.!.!.~.(.~.~.I 7 G X + o   : :.T.;.u v u 6.^.^.^.^.^.~.(.(.^.^.~.(.(.(.",
"!.!.!.(./.~./.^.^.!.!.!.~.~.(.~.~.!.^.^././.^./.(.(.(.(.(.~.~.(.(.~.I.U <./ a u 6 ( 9.T.^.r k k k K v.!.!.!.!.(.(.(.^.^.(.(.(.(.",
"!.!.~.~././.^.^.^.^.^.^./.(.(.(.(.(././.(./.^.^.(.(.(.(.(.(.(.(.(.~.w.-. X_.Z.).1.( z.^.^.V l $.+.9 6.U.!.!.!.~.~.(././.(./././.",
"~.~.(.(.(.(.^.^.^.^.^.^./.(.(.(.(.(.(.(.(.(./.~.(.(.(.(.(.(.(.(.(.(.I.L k.g./ ).,X1.0.^.^.l.q +.+.0 %.I.!.!.!.!.^./.(.(.(.^.^.^.",
"(././.(.(.(.~././.^.^./.(.(./.~.!.!.~.~./.(.(.(.(.(.(./.(.(.(.(.(./.^.I @ T M.# f R U I.~.Y.9 +.@.x s >.w.~.(.~.!.!.~.(.(./.^./.",
"(.(.(.(.~.(.(.(.(.(.(.(.(.(.~.!.!.U.!.~.~.~.(.(.(.(.~./.(.(.(.(.(.^.^.I   F b . 8 A E J Y.Y.c x O.j X 2 C Y.(.~.!.!.!.~./.~.~.~.",
"(.(.~.!.!.~.(.(.(.(.(.(.(.(.~.~.!.!.U.!.~.(.(.(.(.(.(.~.~.~.^.^.~./.^.6.p R # + a ,.b R 0.~.3.@ 5 X . 1 : >.I.Y.!.!.!.~./.~.~.~.",
"(.(.~.!.!.!.(.(././.(.(.(././.~.~.!.!.U.~.(.(.(.~./.~.~.!.!.^.^.(.~././.J / 8 A 3.I.L M ;.Y.w.$ . + o 1 2 4 Z ( Y.~.~.^.^.(././.",
"/./.~.~.!.~.~./.^.^./.(.(.(././.^.^.!.!.~.~.(.(.~.^./.!.U.U.!.~.(.(.~.3.;.A 0.I.Y.~.3.v u.5.Y.0.;.w : 1 [ o.| 4 p ,.U.^.^./././.",
"(./.(.(.(.(.~.^.^.^./.(.(.(.(./.^.^.^.!.!.!./.!.!.!.^.^.!.!.!.~.(.Y.,.E N.8 %.Y.~.0.q i B D I.~.^.0.< : , { ..X.| 3 C <.c.~.~.~.",
"(.(.(.(.(.(.(.~./.~././.~.(.(./.^.^.^.!.!.!.^.!.!.!.^./.~.(.(.(.~.0.q j b l q L./.A l z t 5 w.~.^.U.~ ~ e.P g {  .X.} 3 Z 5.Y.!.",
"(././.~.(.(.(.~.!.~.~.!.!.~.(./.^.^.^.~.~.^.^.!.!.~.~.(.(.(.(.(.Y.S l +.z m A I.~.D l $.$.5 0.~.^.^.Y.Y.~.Y.e.^ g '  .o.[ C U.U.",
"(.(./.~.~.(.~.!.!.!.~.!.U.U.~.~.!.!.!.~.(.~././.~.(.~.~.(./././.0.0 @.+.$.0 2.U.U.D l #.+.l A Y.^./.(.(.(.(.~.Y.l.( < { 4 3.!.!.",
"(./.^.!.!.!.U.U.!.~.(.!.!.U.!.~.!.!.!.^./.(.~.(.~./././.~.^.^./.s z @.@.z c r.U.U.A l $.@.O.9 I.~.(.(.(.(.~.~./.^.T.e.P ( I.!.~.",
"~.^.!.U.U.U.U.!.~.(.(.~.!.!.!.!.U.!.!.^.^./.(.(./././.(.(./.^./.A k z x k J U.U.U.K j x z l r Y.~./.(.(.~.!.!.!.^.^.~.Y.Y.U.!.~.",
"^.^.!.U.U.U.!.!.(.(.(.~.U.U.U.U.!.~.(./.^.^./.(.(.(.(.(.(.(.~.(.e.D A A J c.^.!.!.r.K c A A w.~.~.~.(.(.~.!.!.!././.(.~.!.U.!.~.",
"^.^.^.!.U.!.~.(.(.(.~.~.!.U.U.U.!.(.(.~././.(.(.(.(.(.(.(.(./.(.~./.~.^.^.^./.~.~.!.!.!.!.~.!.!.!.^.(.(.(.~.!.!.!.(.(.(.~.!.~.(.",
"^.^.^.^.!.^./.(.~.~.!.!.!.U.!.!.~.~.^.^.!.~.(.(.(.(.(.(.(.~.~.(.(.(.(./.^.^.~.(.(.^.!.!.!.!.!.!.!.!.(.(.(.(.~.!.!.~.(.(.~.!.!.~.",
"/.^.^.^.^.^.^./.~.~.!.U.!.~.~.(.~.~.!.!.!.!.!.(.(.(.(.~.^.!.!.~.(.(./.~./.^./.(.(.(./.^.^.!.!.!.!.~.(.(.(.~.(.~.!.~.(.(.(.~.~.~.",
"~./.^.^.^.^.^.^./.~.!.!.~.(.(.(./.~.!.!.!.!.!.~.(./.!.!.!.!.!./.(.(./.(.~.^./.(.(.(.(.(././././.(.(.(./.^.^./.(.(.(.(.(.(.(.(.(.",
"/././.^.^.^.^.^./.(.~././.~.(.(.(.~.!.!.!.!.!.~./.^.!.!.!.^.^./.(.(.(.~.(.(.~.(.(.(.(.(.(.~.~.(.(././.^.^.^.^./.(.~.(.(././.~.(.",
"(.~./.^.^.^./././././.^.^.^./././.(.~.~.~.~.~././.^.!.!.~.(./.(././././.(.(.(.(.(.(.~.(.(././.~.(././.~./.^.^././.^././.^.^./.(.",
"(./././././.~.(.(.(.(././.^./././.(.(./.(.(.(.(./.~.~.(.(.(./././.^./.~.(.(.(.(././././.(.(././.(././.~./././.~./.^.^./.^.^./.(.",
"(.(.(.(.(.(./.(.(./.(./.(.(.(.(.(.(.(./.(.(.(.(.^.~.(.(.(.(./.~.(./.~.~././././.~.~./.~././././.~./././././.(.(./.^./.~././.~.(."
};
