/* XPM */
static char *_ab00607dfce4b9886fe7c07ba6fe4e2JV1uQJgIr6hXq6U4[] = {
/* columns rows colors chars-per-pixel */
"64 64 177 2 ",
"   c #1E1D1A",
".  c #221E1B",
"X  c #281F1C",
"o  c #25211E",
"O  c #2B241D",
"+  c #31271F",
"@  c #33291F",
"#  c #252522",
"$  c #2B2623",
"%  c #272826",
"&  c #2D2925",
"*  c #2D2C29",
"=  c #312622",
"-  c #3F2722",
";  c #342B23",
":  c #392C23",
">  c #322D2A",
",  c #3A2D29",
"<  c #2F312D",
"1  c #3B3224",
"2  c #35312D",
"3  c #3B3529",
"4  c #3B332C",
"5  c #333532",
"6  c #3B3532",
"7  c #363935",
"8  c #3D3935",
"9  c #3B3E3A",
"0  c #432A23",
"q  c #4B2B25",
"w  c #422E28",
"e  c #522C27",
"r  c #542F29",
"t  c #592F29",
"y  c #423424",
"u  c #463825",
"i  c #4A3B26",
"p  c #40362B",
"a  c #4E332D",
"s  c #443A2F",
"d  c #4E3E28",
"f  c #513F27",
"g  c #53322C",
"h  c #59302A",
"j  c #513D29",
"k  c #423A35",
"l  c #473A34",
"z  c #4A3D33",
"x  c #453D3A",
"c  c #543B34",
"v  c #593E36",
"b  c #63342D",
"n  c #6A362F",
"m  c #6D3830",
"M  c #713A31",
"N  c #3E423D",
"B  c #544027",
"V  c #554329",
"C  c #5A462B",
"Z  c #5E492B",
"A  c #474437",
"S  c #4E4036",
"D  c #43423D",
"F  c #4A423E",
"G  c #504237",
"H  c #52453C",
"J  c #5A463D",
"K  c #594A3E",
"L  c #634B2D",
"P  c #6A4F2D",
"I  c #6C532E",
"U  c #70552F",
"Y  c #684837",
"T  c #665132",
"R  c #6F5231",
"E  c #735531",
"W  c #7A5732",
"Q  c #765932",
"!  c #7C5C33",
"~  c #7F6134",
"^  c #424540",
"/  c #4D4541",
"(  c #454A45",
")  c #4C4D46",
"_  c #4B4F49",
"`  c #504743",
"'  c #534A45",
"]  c #5D4E41",
"[  c #574D49",
"{  c #584F4A",
"}  c #4C524D",
"|  c #52534D",
" . c #5C524D",
".. c #525751",
"X. c #545B55",
"o. c #585D57",
"O. c #6C4D47",
"+. c #754A40",
"@. c #7D4E43",
"#. c #635447",
"$. c #665748",
"%. c #625652",
"&. c #655A55",
"*. c #5B625C",
"=. c #61635D",
"-. c #5F6961",
";. c #666C63",
":. c #626B64",
">. c #6A7167",
",. c #6B746C",
"<. c #6E7971",
"1. c #727C74",
"2. c #825E35",
"3. c #856336",
"4. c #896336",
"5. c #8B6837",
"6. c #8C6539",
"7. c #8C6938",
"8. c #936A37",
"9. c #90663B",
"0. c #936D39",
"q. c #9A6D3C",
"w. c #96713A",
"e. c #9B723C",
"r. c #A3753D",
"t. c #A9753C",
"y. c #A47A3E",
"u. c #A97D3F",
"i. c #B37C3F",
"p. c #845348",
"a. c #965B4E",
"s. c #875E55",
"d. c #9C5E51",
"f. c #976459",
"g. c #A87642",
"h. c #AC7D41",
"j. c #B47D43",
"k. c #B87F45",
"l. c #A36153",
"z. c #A96D62",
"x. c #768279",
"c. c #7A857B",
"v. c #7A867C",
"b. c #AE8041",
"n. c #B48442",
"m. c #BE8442",
"M. c #BD8A45",
"N. c #BE8348",
"B. c #BF8848",
"V. c #808A7F",
"C. c #C08542",
"Z. c #C18445",
"A. c #C18843",
"S. c #C18A44",
"D. c #C28D45",
"F. c #C48E47",
"G. c #C3864A",
"H. c #C4874A",
"J. c #C4874B",
"K. c #C38849",
"L. c #C48A49",
"P. c #C48C48",
"I. c #C48C49",
"U. c #C39046",
"Y. c #C49047",
"T. c #7E8B81",
"R. c #818E84",
"E. c #888F89",
"W. c #839086",
"Q. c #869489",
"!. c #89968C",
"~. c #8B998E",
"^. c #8E9C91",
"/. c #909F94",
"(. c #92A196",
"). c #98A19A",
"_. c #9DA9A0",
/* pixels */
"U.U.Y.F.P.P.P.Y.Y.P.P.F.F.U.D.D.D.P.D.S.S.D.A.C.C.C.D.Y.Y.Y.Y.Y.Y.Y.Y.Y.P.P.Y.Y.P.L.Y.Y.Y.P.L.P.Y.Y.P.P.Y.Y.F.L.F.Y.Y.F.F.P.L.L.",
"S.S.D.F.P.P.P.Y.F.L.P.P.D.S.A.C.Z.S.P.S.S.D.S.C.C.C.S.D.D.D.P.P.P.P.Y.Y.P.P.Y.Y.P.D.D.U.P.L.L.P.F.F.P.L.P.P.P.P.F.L.P.P.P.P.L.L.",
"C.m.D.D.D.P.L.F.F.P.F.Y.D.S.C.C.Z.Z.L.L.L.L.K.S.S.S.S.S.Z.Z.Z.G.L.L.P.Y.Y.F.F.P.K.S.S.S.S.K.P.K.K.K.K.H.H.L.L.F.D.Z.G.D.F.F.P.P.",
"C.m.C.C.S.K.L.L.L.L.P.F.F.D.D.D.K.K.H.H.H.H.H.G.Z.Z.G.Z.C.C.Z.H.H.H.L.P.P.L.L.L.K.Z.m.m.C.S.Z.Z.Z.Z.Z.H.H.H.L.P.D.S.C.S.D.Y.P.P.",
"D.A.m.m.m.Z.G.H.L.L.P.F.P.F.Y.Y.F.P.P.L.L.L.H.G.G.G.L.K.S.S.K.N.N.N.N.N.B.K.K.L.P.S.Z.C.C.C.C.C.Z.Z.G.H.H.H.H.L.L.D.A.C.D.Y.P.P.",
"D.D.S.C.m.Z.Z.K.P.P.P.Y.D.D.D.S.D.D.D.F.F.P.P.L.L.P.S.M.n.y.q.6.2.! ! 2.4.e.h.n.M.D.D.D.S.S.S.S.K.G.L.L.H.H.L.P.P.U.S.A.D.F.P.F.",
"P.P.D.S.C.m.m.S.D.Y.D.S.S.A.C.m.m.C.S.D.Y.Y.U.D.M.b.w.Q Z u 1 ; ; ; ; ; ; 1 d I 5.u.M.D.Y.F.P.L.L.L.P.P.P.L.P.F.Y.Y.D.S.D.F.P.P.",
"Y.F.L.D.D.A.m.S.D.L.K.Z.Z.C.Z.S.C.m.C.D.Y.U.M.y.! V 1 ; > 2 6 8 k x x k 8 6 2 ; : f ! u.M.D.L.L.P.Y.Y.Y.Y.Y.Y.Y.Y.D.S.C.Z.D.P.P.",
"F.F.P.L.F.D.D.D.F.L.H.G.K.K.K.K.K.S.D.U.M.u.! d : 4 8 x x F F F F / F x 8 x D x 6 > ; V 8.n.S.P.D.D.D.D.U.Y.Y.Y.Y.K.Z.Z.Z.P.F.F.",
"P.P.L.L.P.Y.Y.Y.Y.L.H.H.H.H.H.H.H.L.D.M.w.C 1 4 x F x k 8 8 8 8 x x F x k 6 x F F x 2 $ y 2.j.Z.Z.C.C.A.S.D.D.Y.F.L.G.G.G.L.F.Y.",
"Y.P.L.L.P.Y.Y.Y.F.L.H.H.H.L.L.H.H.K.n.5.u 2 x F k 6 2 2 4 6 6 6 6 6 8 x x x x F / F k > $ 1 2.k.Z.Z.m.m.C.C.S.S.P.P.L.H.H.L.F.Y.",
"F.L.H.L.F.Y.Y.Y.F.L.L.L.P.P.P.P.P.n.4.u 4 F F k 8 x x x x k 8 8 k x x x x F F F / x 6 > > $ y 9.N.G.G.G.G.Z.Z.G.L.P.P.L.L.L.P.Y.",
"P.L.H.L.P.F.P.P.Y.F.P.P.Y.Y.Y.Y.M.0.u 4 ` / F ' [ ' F k 6 6 4 2 2 2 6 x F F / / F k 2 > 2 > $ j g.G.H.H.H.G.G.H.H.L.F.F.L.L.P.Y.",
"F.L.H.H.L.F.F.F.Y.F.F.P.Y.Y.Y.U.u.C 4 '  .[  .%. .' / / / F x x x x k k x / / / F x 6 > > 2 > & R j.G.H.H.H.H.H.H.L.F.Y.P.L.P.Y.",
"F.P.L.L.L.F.Y.Y.P.L.L.L.P.Y.U.M.! 1 / %.%.%.&.&.%.%.{ F 8 6 2 6 6 k x F F / / / x k k 6 ; & 2 & y q.G.H.H.H.H.H.H.L.F.P.F.F.P.F.",
"L.L.P.F.P.P.Y.P.L.H.H.H.L.P.D.g.j k  . .{  .&.&.%.' 8 > 2 6 8 k k k x F / / / F F k 4 4 4 & & > & E m.H.H.G.H.L.L.L.L.P.Y.P.L.L.",
"L.L.F.F.P.P.F.L.H.H.H.H.L.P.M.3.3 ` [ F /  .%.%./ 8 8 k x F F F F F F / / / F x x x 6 > > > & > & j g.G.H.L.L.P.F.P.P.F.Y.P.L.L.",
"F.F.F.L.L.F.F.L.H.H.H.H.L.D.n.L 6 ' x F [  . .' F F k 8 k F F x x x F / / / / F k 6 6 2 & 2 > * ; 1 q.G.L.P.Y.Y.Y.Y.Y.Y.Y.L.H.L.",
"D.S.D.L.L.Y.Y.L.L.H.H.L.P.D.y.u k F x / ' [ [ ` x 6 6 x F x 6 6 k F F / / F x F F k 2 > > 2 4 > > = 4.N.L.F.Y.Y.Y.Y.Y.Y.F.L.L.L.",
"S.C.A.D.F.Y.Y.F.P.L.L.L.P.M.5.1 x x / / / ' ` x 2 6 F F x 6 6 k x F / / / F k 6 x F 6 & > 6 6 6 2 & W N.L.F.Y.Y.Y.F.P.P.P.P.L.P.",
"Z.C.A.U.Y.Y.Y.Y.Y.F.P.P.Y.B.Q = x x / F F / x 6 k F / F 6 8 x 6 k F / / F F x 6 2 k 8 > $ > 6 6 6 & P n.F.Y.Y.Y.Y.P.L.L.L.F.P.F.",
"S.C.S.D.D.D.D.Y.Y.D.D.Y.Y.M.I & x F F k x F 6 k F / / x k F x 8 x F D F F x 8 8 * > 6 2 & 2 6 6 4 & L n.U.Y.Y.Y.Y.P.P.L.P.Y.Y.P.",
"S.S.D.D.S.Z.D.Y.F.S.S.D.F.M.I & x F x 6 F x x F / / / x x k x 6 > > * > k F 6 6 > & 6 6 > 2 6 4 > & Z n.D.P.Y.Y.Y.P.P.P.Y.Y.Y.F.",
"P.F.Y.D.C.C.D.Y.D.Z.C.S.L.n.E & k F k k F F F F x x F F 6 & 2 * * 7 9 * > x k 6 6 & 2 6 2 2 2 > & $ L n.P.P.Y.Y.Y.Y.Y.Y.P.P.Y.P.",
"F.P.P.D.S.S.D.Y.D.C.m.S.P.B.~ & 8 F x x x 6 k 6 & * 8 6 $ # $ * X.<.,._ * & > 2 6 > > 6 4 & # o   @ ~ B.Y.Y.Y.Y.Y.F.Y.Y.P.F.Y.Y.",
"L.L.P.Y.D.D.Y.Y.D.S.A.D.Y.D.0.: 4 F F 8 > & & & < * & * N X.} *.v.Q.Q.1.} 7 * # & > 2 6 & # * % # i r.S.D.U.Y.Y.P.P.F.Y.Y.Y.Y.Y.",
"P.L.P.Y.Y.Y.Y.Y.Y.D.D.Y.Y.U.u.d > x 6 & 7 ....o.;.*...*.1.T.v.T.!.~.W.,.) 5 5 5 % & 6 > & 7 9 ( ^ 3 3.M.D.U.Y.Y.P.L.L.P.F.Y.Y.Y.",
"Y.F.Y.Y.P.P.P.Y.Y.Y.Y.Y.Y.U.M.E = > $ 7 :.v.T.T.W.R.T.R.Q.~.!.Q.W.1...7 > 2 * N 5 & 4 & 5 } } ^ ( 7 L n.D.F.F.D.K.H.H.L.L.P.Y.Y.",
"P.P.Y.F.L.L.L.P.F.Y.Y.Y.Y.Y.D.r.u . . 7 *.v.W.~.^.^.~.~.~.~.W.x.o.9 > 6 k k > < * $ > & ( *.^ 5 5 7 d h.K.L.K.Z.Z.G.L.L.L.F.Y.P.",
"P.P.F.P.L.H.H.L.L.F.L.P.Y.F.P.n.U O $ > 2 D *.x.v.c.W.x.,.1.:.D 2 2 6 6 6 6 > o O o > * o.*.7 * * 7 u r.Z.G.Z.C.Z.G.L.L.P.Y.Y.P.",
"Y.F.L.L.L.L.L.L.L.P.L.L.Y.F.L.B.7.; > 6 6 > > 7 9 9 *.( > 5 2 > 6 2 > & $ & $ O 0 O $ * o.} ( 2 * 5 d t.m.C.Z.Z.Z.L.P.Y.P.P.Y.Y.",
"Y.P.L.H.L.F.P.P.P.P.P.P.Y.Y.F.D.u.u & & * > > > * * } ^ * > > > & = , c c = . - n 0 o * o.} o.N 7 2 L j.Z.C.Z.S.P.Y.Y.Y.Y.Y.Y.Y.",
"L.L.L.L.P.Y.Y.Y.Y.Y.Y.Y.Y.Y.Y.U.n.L O o , , $ $ $ * *.*.* $ & , c Y p.a.p.w X e M g 2 ( -...o.^ N 1 3.m.K.S.D.F.Y.Y.Y.Y.P.Y.Y.Y.",
"L.L.F.P.Y.Y.Y.Y.Y.U.U.U.U.Y.Y.Y.B.! O $ O.p.Y a = D x.v.} & c s.f.d.l.l.@., = t n c *.<.<.*...} 9 V u.D.Y.Y.Y.Y.Y.Y.Y.Y.P.P.Y.Y.",
"L.L.Y.Y.Y.Y.Y.U.D.S.S.S.S.D.D.F.B.4.O o J f.a.@.p o.<.v.1.D v f.z.l.d.@.z D k h b H 1.v.x.,.:...3 3.B.Y.Y.Y.Y.D.S.D.Y.Y.Y.P.P.Y.",
"P.P.Y.F.F.Y.Y.S.C.Z.C.m.m.m.C.Z.m.8.: 7 x J +.v D X.D o.R.,.( G Y Y v l ..1.| g g ..x.x.1.1.:.A I n.D.Y.Y.P.D.A.m.A.D.Y.Y.P.F.Y.",
"P.Y.Y.P.P.F.F.S.Z.G.Z.C.m.m.m.m.m.q.y ..,._ D ) *.^ , D v.~.v.:.| | o.,.W.!.=.a z ,.x.:.} X.H T y.D.D.D.D.Y.D.S.C.S.D.D.Y.Y.Y.Y.",
"P.Y.Y.P.P.P.L.D.S.G.G.G.Z.Z.Z.C.m.t.d | ^.W.v.T.,.8 ; 6 1././.~.W.Q.!.~./.^.>.s ) <.;.N 1 T 3.h.D.D.S.Z.S.F.Y.D.D.D.S.S.D.Y.Y.Y.",
"Y.Y.Y.P.P.F.P.Y.P.L.H.H.G.G.G.G.G.j.L x !._.(.!.>.) D ) x./.(.^.^./.^.^.^.^.c.( } o.9 3 Q h.B.D.S.Z.C.C.Z.S.P.Y.Y.D.A.C.S.D.Y.Y.",
"P.Y.Y.F.P.P.Y.Y.P.L.H.H.H.H.H.H.H.N.6.p *.)._./.V.1.>.;.v.^.(./././.^.~.W.Q.v.o.N 2 i 3.n.K.Z.Z.Z.C.m.m.C.Z.K.P.F.D.D.A.D.Y.Y.Y.",
"Y.Y.Y.F.L.L.Y.Y.F.L.H.G.G.G.G.H.H.G.j.R 4 o.E.).(./.^.!.~.(.(.(.(./.^.Q.x.:.( * $ C e.M.K.G.Z.Z.S.S.S.Z.C.C.Z.G.L.F.U.D.Y.D.D.D.",
"Y.F.Y.F.L.L.Y.Y.U.S.Z.Z.Z.Z.Z.G.H.H.G.g.E p D =.v.!.^.^.~.~.~.Q.R.x.>...9 &     O 2.n.P.L.L.S.D.D.Y.F.D.Z.Z.Z.G.L.P.F.P.F.S.C.C.",
"P.L.P.Y.P.P.F.F.D.C.C.C.C.m.m.Z.G.H.H.G.j.9.Z 3 2 ^ ..*.*.o..._ N 5 & # .   . $ O L h.D.P.P.Y.Y.Y.Y.Y.P.G.G.G.G.H.L.P.P.F.D.C.A.",
"L.L.L.Y.Y.Y.P.L.S.S.A.S.A.C.m.m.Z.L.L.L.K.B.h.I 2 5 # # # # o # o . ; ; . . , z 4 1 3.B.Y.F.D.U.Y.Y.Y.P.L.H.H.H.L.L.F.Y.Y.D.D.D.",
"L.L.P.Y.Y.D.S.S.F.U.U.U.U.D.D.S.D.P.P.D.D.U.M.! D :.D 5 9 5 # % $ 2 S : O o l J S 3 V h.D.D.S.S.D.P.Y.F.L.L.L.P.P.F.Y.Y.Y.P.Y.Y.",
"D.F.F.P.D.A.C.S.U.Y.Y.Y.Y.Y.Y.Y.Y.Y.D.D.D.U.D.7.A ,.} 2 7 5 # o 2 ] H : O o z J G 3 : 4.B.Z.m.C.S.F.Y.Y.Y.F.F.Y.Y.Y.U.D.U.Y.Y.Y.",
"D.F.F.L.D.A.C.S.D.P.F.Y.Y.Y.Y.Y.Y.Y.D.A.D.U.M.3.3 } 9 2 ^ N * ; K ] l : = o 3 k 4 ; $ Z u.m.C.S.D.F.Y.Y.Y.Y.Y.Y.Y.Y.D.A.A.U.Y.Y.",
"P.P.F.L.L.D.D.D.P.L.P.Y.Y.Y.Y.Y.Y.Y.U.D.U.M.0.d $ & > > 2 2 k K K s : 3 = o > 8 D ( 8 y 8.m.S.D.F.P.P.Y.Y.Y.P.P.Y.Y.S.C.C.D.Y.Y.",
"P.P.P.L.G.F.Y.Y.P.L.P.Y.Y.Y.P.P.F.Y.Y.Y.U.h.C 2 2 & ] #.#.$.#.H : & ; = O o D ' H k ; @ 4.N.H.L.P.P.F.Y.Y.P.L.L.P.F.D.S.D.D.P.P.",
"D.D.F.L.K.D.Y.Y.Y.F.Y.Y.Y.Y.L.L.F.Y.Y.Y.D.w.1 * # = G H K K z & . o O + O . = , - 0 q : 2.N.H.H.P.Y.Y.Y.F.P.L.L.L.F.Y.U.U.Y.P.P.",
"S.A.D.F.F.Y.Y.Y.Y.Y.Y.Y.Y.Y.L.L.F.Y.Y.Y.D.w.1 * $ ; : : : : ; @ @ ; : : O X q b n n b 0 ! m.H.H.P.Y.Y.F.P.P.D.P.F.Y.Y.Y.Y.F.Y.Y.",
"C.C.S.Y.Y.Y.P.P.P.Y.P.P.Y.F.L.L.F.Y.Y.Y.D.y.u * # ; : = = = = ; ; ; ; ; O O r m m n r y 8.B.H.L.P.D.S.S.S.D.D.S.D.U.Y.Y.F.P.P.Y.",
"S.S.D.Y.F.P.L.L.P.Y.Y.Y.Y.Y.L.L.F.Y.Y.Y.U.n.2.y $ 3 z p 3 p p p p p p p : o - r t q 0 P b.S.Z.S.D.S.m.m.C.D.A.C.C.S.D.D.D.P.F.Y.",
"D.S.D.D.F.L.H.H.P.D.D.Y.Y.Y.P.P.Y.Y.Y.Y.D.m.i.4.y 3 z ; & 3 s z z z s 3 = o X O O O B y.S.Z.C.C.D.S.m.C.S.U.D.S.m.m.S.A.Z.K.P.Y.",
"D.Z.C.D.Y.F.L.L.S.C.S.D.Y.Y.P.P.Y.Y.Y.U.A.m.m.t.f , : . . $ ; 3 3 3 3 & o .   . O O E m.L.S.C.m.C.A.C.A.D.Y.Y.D.A.m.m.m.m.Z.L.F.",
"D.A.m.D.Y.Y.P.P.S.C.A.D.Y.Y.F.D.D.U.Y.D.A.m.C.n.I O o . . . . O O o O & 4 .   1 I R r.K.P.F.D.C.m.m.m.m.D.Y.Y.U.S.C.m.m.m.Z.H.L.",
"U.D.A.D.Y.Y.F.S.S.S.D.U.Y.Y.K.Z.S.S.S.S.C.Z.S.B.3.@ ; : : O O y d O o o $ . . f u.n.S.P.F.Y.D.A.m.m.m.C.D.D.Y.Y.D.D.C.m.Z.G.H.L.",
"D.A.C.D.Y.Y.D.Z.A.D.U.Y.Y.Y.S.Z.C.C.C.C.C.Z.K.B.5.u : : ; @ : L L ; @ O O O @ Z n.D.D.S.K.P.F.D.S.C.m.C.A.A.D.F.F.P.K.Z.G.H.H.L.",
"D.S.D.U.Y.Y.D.S.D.D.F.Y.Y.Y.D.S.Z.Z.Z.G.K.P.F.D.n.e.6.3.3.3.0.y.r.4.W E Q ! 7.y.M.S.Z.Z.Z.Z.D.F.D.D.D.S.m.C.D.F.L.L.H.H.H.H.L.P.",
"Y.Y.Y.Y.Y.Y.U.U.D.L.L.L.P.Y.Y.F.P.K.K.P.Y.Y.Y.F.D.D.K.B.M.B.D.D.S.N.m.m.m.m.B.D.D.S.C.Z.C.C.D.P.F.Y.Y.D.S.S.D.P.L.H.H.H.H.L.P.F.",
"Y.F.P.P.F.Y.F.Y.P.L.L.L.L.P.P.Y.Y.F.F.Y.Y.Y.Y.Y.Y.F.Y.Y.Y.Y.Y.Y.P.L.K.Z.C.Z.K.P.F.S.C.S.S.S.D.F.Y.Y.F.P.L.F.Y.P.L.L.H.L.H.P.P.P.",
"Y.P.L.L.P.P.L.P.P.L.L.P.F.P.P.Y.F.P.P.Y.Y.F.F.P.Y.Y.Y.Y.P.P.P.P.F.P.F.D.S.S.L.P.P.D.D.D.D.F.Y.P.P.P.L.L.L.P.P.P.P.P.L.L.L.P.F.Y.",
"Y.P.L.L.L.L.L.P.F.P.L.P.F.P.P.Y.P.P.F.Y.Y.P.P.P.F.F.Y.P.F.P.L.L.P.P.Y.Y.D.F.F.P.F.Y.Y.Y.P.Y.Y.P.P.P.L.P.P.Y.Y.P.F.F.P.P.P.P.P.Y.",
"Y.F.P.P.F.P.L.P.Y.Y.P.P.P.P.P.F.P.P.P.P.F.P.Y.F.P.P.P.P.F.F.P.F.F.P.Y.Y.Y.Y.F.L.F.Y.Y.Y.P.Y.P.Y.Y.Y.Y.Y.P.F.P.F.F.P.Y.Y.Y.F.Y.Y."
};
