/* XPM */
static char *_9832b67970c4c19ee7c1033e19cbd07DDZP7OGoc4ROe9S4[] = {
/* columns rows colors chars-per-pixel */
"64 64 179 2 ",
"   c #171614",
".  c #181715",
"X  c #1A1917",
"o  c #1E1C1A",
"O  c #221E1B",
"+  c #2B1F1C",
"@  c #24211D",
"#  c #2B231D",
"$  c #2F281D",
"%  c #31261E",
"&  c #352C1F",
"*  c #3A2E1F",
"=  c #252421",
"-  c #2A2623",
";  c #262826",
":  c #2C2926",
">  c #2C2D2A",
",  c #332721",
"<  c #3D2522",
"1  c #342B24",
"2  c #3B2D23",
"3  c #322D2B",
"4  c #3E2F2B",
"5  c #2E312D",
"6  c #3C3122",
"7  c #36312E",
"8  c #39322E",
"9  c #333532",
"0  c #3C3532",
"q  c #363935",
"w  c #3C3935",
"e  c #3A3D39",
"r  c #412B26",
"t  c #4E2B25",
"y  c #562C26",
"u  c #552E28",
"i  c #423523",
"p  c #4B3B25",
"a  c #41362C",
"s  c #4B342D",
"d  c #443A2E",
"f  c #52372F",
"g  c #5C322B",
"h  c #413732",
"j  c #413A36",
"k  c #4B3E32",
"l  c #453D3A",
"z  c #553830",
"x  c #5B3C34",
"c  c #68342D",
"v  c #633E36",
"b  c #6D3830",
"n  c #723A31",
"m  c #7E3F35",
"M  c #3D413C",
"N  c #554227",
"B  c #5B4529",
"V  c #5F4A2B",
"C  c #48423A",
"Z  c #4A423E",
"A  c #55453A",
"S  c #58483C",
"D  c #634C2C",
"F  c #694C2F",
"G  c #69512D",
"H  c #71572F",
"J  c #6C4737",
"K  c #725332",
"L  c #7A5731",
"P  c #765931",
"I  c #7D5C33",
"U  c #7F6033",
"Y  c #3F4540",
"T  c #434641",
"R  c #4E4541",
"E  c #454A45",
"W  c #484943",
"Q  c #474D48",
"!  c #494E49",
"~  c #504743",
"^  c #534A46",
"/  c #5D4E42",
"(  c #574E49",
")  c #594E4A",
"_  c #4D534D",
"`  c #51534D",
"'  c #5C524D",
"]  c #4F5751",
"[  c #505651",
"{  c #545B55",
"}  c #595C59",
"|  c #604E42",
" . c #645446",
".. c #67574C",
"X. c #6C5A4B",
"o. c #715F4F",
"O. c #625752",
"+. c #665A55",
"@. c #695C57",
"#. c #5B625C",
"$. c #72604F",
"%. c #69695C",
"&. c #746151",
"*. c #5F6861",
"=. c #636A64",
"-. c #626B64",
";. c #69746C",
":. c #6A746C",
">. c #6E7971",
",. c #717C74",
"<. c #845F37",
"1. c #846435",
"2. c #8B6436",
"3. c #8C6937",
"4. c #8C6439",
"5. c #96693A",
"6. c #926C3A",
"7. c #9B6D3D",
"8. c #95703A",
"9. c #9B743B",
"0. c #A1753E",
"q. c #A9753D",
"w. c #A3793E",
"e. c #B67D3F",
"r. c #835045",
"t. c #8B5549",
"y. c #93594C",
"u. c #895E55",
"i. c #9C5E50",
"p. c #A67541",
"a. c #A97642",
"s. c #AB7E40",
"d. c #B37D44",
"f. c #A16052",
"g. c #A96456",
"h. c #AE6758",
"j. c #976A61",
"k. c #AA6E62",
"l. c #AF786E",
"z. c #BA796C",
"x. c #7B8377",
"c. c #77837A",
"v. c #7A867D",
"b. c #7F897E",
"n. c #AD8141",
"m. c #B48542",
"M. c #BF8341",
"N. c #B78843",
"B. c #BB8A45",
"V. c #BB8148",
"C. c #C18544",
"Z. c #C18546",
"A. c #C18843",
"S. c #C28D46",
"D. c #C48F47",
"F. c #C38649",
"G. c #C4874B",
"H. c #C38949",
"J. c #C4884A",
"K. c #C48E48",
"L. c #C6894C",
"P. c #C49047",
"I. c #C69148",
"U. c #C89049",
"Y. c #7D8A81",
"T. c #818E84",
"R. c #839086",
"E. c #869389",
"W. c #89958C",
"Q. c #8B998F",
"!. c #8D9C91",
"~. c #909F94",
"^. c #92A196",
"/. c #95A399",
"(. c #99A49C",
"). c #9FA6A0",
"_. c #A3AFA5",
"`. c #A6B2A9",
"'. c #AFB8B1",
/* pixels */
"J.J.K.P.P.P.P.D.J.D.P.P.K.K.P.P.J.J.K.P.P.P.J.J.P.P.J.K.P.P.P.P.P.P.P.P.P.S.Z.Z.Z.A.S.A.A.P.K.K.D.P.P.P.P.K.K.P.P.K.K.K.D.P.P.P.",
"J.G.K.K.K.K.J.P.K.K.K.K.J.K.P.P.K.J.J.K.P.P.K.K.P.P.K.K.P.P.K.K.K.K.K.K.K.A.M.Z.Z.A.S.A.A.K.H.Z.Z.Z.A.H.K.K.J.P.P.K.K.J.K.P.A.S.",
"K.K.P.P.K.F.Z.S.P.J.G.G.G.H.H.J.K.K.K.J.S.A.A.J.K.P.P.P.P.K.J.G.G.Z.Z.Z.A.D.S.S.K.K.J.J.G.G.Z.M.Z.Z.A.S.P.P.K.P.D.J.K.P.P.S.M.Z.",
"K.K.P.P.A.Z.A.S.K.J.G.G.G.Z.Z.Z.Z.Z.A.Z.M.M.Z.F.J.J.J.K.K.G.G.G.G.Z.M.M.Z.G.Z.Z.G.G.G.G.G.G.J.A.S.P.P.K.P.K.J.J.J.J.J.A.Z.A.M.Z.",
"K.K.P.S.M.Z.D.J.J.G.G.G.G.F.Z.Z.Z.M.Z.Z.C.Z.H.K.J.J.J.K.L.L.L.L.L.J.S.A.H.J.F.F.G.G.G.J.J.K.K.P.P.P.P.K.P.J.G.J.G.G.Z.M.M.M.A.S.",
"P.K.K.S.Z.S.P.K.K.G.G.G.G.J.G.J.D.S.H.H.D.P.P.I.P.N.w.6.<.I I 2.5.w.m.S.I.I.K.J.J.K.K.P.P.P.S.S.S.S.P.P.P.K.K.K.J.F.Z.M.Z.A.K.I.",
"K.K.P.S.A.S.P.P.P.K.J.K.K.K.K.J.J.K.P.P.P.P.N.6.D i # @ @ @ @ @ @ # * N I w.B.P.P.P.P.P.P.A.Z.M.M.M.A.A.A.K.P.P.A.M.M.Z.A.K.J.K.",
"J.K.D.Z.M.C.D.P.P.P.P.P.P.P.P.K.J.J.P.P.N.U i @ = 3 0 l l C C l l 0 3 - @ # p I m.P.P.P.S.Z.M.Z.A.Z.Z.Z.Z.G.J.P.A.M.A.S.K.J.P.P.",
"P.P.K.Z.Z.F.J.P.P.P.P.P.P.P.P.P.S.S.D.9.p O : j C R l 0 l R R R R R R R C j 3 @ 6 U B.P.P.S.A.J.K.J.K.J.G.G.J.P.P.S.P.I.J.K.P.P.",
"P.P.J.G.G.G.J.P.P.P.S.A.A.Z.Z.Z.Z.M.2.$ O 7 C R R j 3 j C Z C l w 0 0 w l C ~ R 7 @ p w.P.K.J.G.G.G.G.G.G.G.J.P.P.P.P.K.G.J.K.K.",
"P.P.J.G.G.J.K.K.K.Z.M.M.M.M.Z.Z.G.2.# = 0 l R R Z j C C l 0 0 0 0 0 8 3 3 : 7 l ^ C - & 6.P.J.G.G.G.G.G.G.G.J.P.P.P.P.K.G.G.K.P.",
"P.K.G.J.K.K.K.J.G.Z.Z.F.F.F.F.J.7.% = 7 3 8 C R R R C l l C C l j j l C R C l 0 0 ~ ^ 3 $ 6.K.K.K.K.K.K.J.G.J.P.P.P.P.P.J.G.J.P.",
"P.K.G.J.P.P.J.G.G.G.G.G.G.G.J.d.i O 0 8 7 3 j Z R R R R C 0 3 3 3 3 3 7 0 C ^ ' ^ l R ' 3 & w.P.P.P.P.P.K.K.D.P.K.K.P.K.J.G.J.K.",
"P.K.J.K.P.P.J.G.G.G.G.G.G.G.F.G o 3 0 3 : 0 C R R R R l 0 j C R R R ^ ^ ~ C R ) +.O.^ ' ' - p B.P.P.P.P.K.P.P.P.P.P.D.J.G.G.J.P.",
"D.K.P.P.K.D.J.G.G.G.G.G.G.J.p.$ - 0 : - 0 C w l R R R C Z C j 0 3 3 3 0 R O.+.O.+.@.+.+.@.^ @ I I.P.P.K.J.J.J.K.P.P.P.J.J.J.K.P.",
"J.J.K.P.K.J.J.J.J.G.G.G.G.J.K O 8 : - 0 0 3 w R R R R R C l l j l w 0 3 - 7 ( @.@.+.) ( +.+.0 6 d.I.K.J.G.G.G.J.K.P.K.K.P.K.J.J.",
"J.G.K.P.P.K.K.P.K.J.J.G.G.V.i - 3 - 8 7 - w C j l R R R R R R R R R R C C w 7 C +.+.O.C l ' ) - 3.I.K.G.G.G.G.G.J.P.K.K.P.P.J.J.",
"J.G.J.P.P.P.P.P.P.P.K.J.J.p.$ 3 : 3 0 - 8 j 3 j Z R R R R R l j l R C j 0 l ~ C R O.' ' l 0 ' 3 B S.P.J.G.G.G.G.J.P.P.J.J.P.P.P.",
"J.G.J.P.P.P.P.P.P.P.D.J.J.6.@ 3 3 0 7 3 7 : l R Z l C R R R C l 7 8 C R l 3 3 R ^ ( ^ ^ ^ j R l & m.P.K.G.G.G.G.J.P.P.J.J.S.A.S.",
"K.J.K.K.K.K.P.P.P.P.P.J.L.I O 0 0 w 0 7 = w R C 7 j R R R R C l C 0 3 C R R 0 : l ^ ^ R R ^ j R @ 6.I.K.J.G.J.K.P.P.P.P.P.A.Z.A.",
"D.K.P.J.G.J.K.P.P.P.P.P.J.F @ 0 w w 3 @ : j l 3 0 Z C R R R C 0 7 C w 8 R R R j 3 l R C R ~ l C @ P I.P.K.K.P.P.P.P.P.P.P.A.Z.H.",
"K.P.P.K.J.K.K.P.P.P.P.P.S.B = 0 0 w 8 - 0 w 3 - l 0 l R C Z R Z w l R 0 l R R R j 8 Z l w R l C @ G P.P.P.P.P.P.P.P.S.P.P.A.M.A.",
"P.P.P.P.K.K.K.P.P.P.K.K.S.N = 3 8 w 7 3 w 0 = 7 8 0 R l - - : - j C l C l R R R R j l R 7 l R C O G P.K.S.Z.A.D.P.S.Z.A.P.S.A.S.",
"K.P.K.K.P.P.P.P.P.P.K.K.P.B @ : 3 0 8 7 w 7 - 0 8 l R 3 = q 5 = : w @ 0 R R l l R R C R j 0 R l o H K.G.A.M.Z.K.P.S.M.Z.P.P.K.K.",
"P.P.P.K.P.P.P.P.P.P.P.P.P.U O o o O : 0 w 3 3 w 0 3 = o E v.c.#.@ O o O 0 l - = j l w C l l R j o 1.I.J.S.M.M.S.P.P.A.A.P.K.K.P.",
"P.P.P.P.P.P.J.K.P.P.P.A.D.N.p X = 5 @ - 0 7 3 : O ; e ] v.!.Q.T.#.E #.e O O = : O O o - l Z R 0 @ 9.I.P.P.A.A.P.P.P.P.P.P.J.G.J.",
"P.P.P.P.K.J.J.K.P.P.P.A.D.3.- ! _ q M @ 3 0 - @ q 9 7 ! c.~.!.!.R.Y.E.c.#._ -.>.{ { { > @ j ~ : 6 m.P.P.P.P.P.P.P.P.P.P.P.K.J.K.",
"P.P.K.J.G.G.G.J.D.P.P.P.S.N 9 _ M #._ 9 - 0 - e ! = 3 - > [ v.Q.W.Q.!.Q.R.T.E.W.R.R.R.>.9 @ 0 o H P.P.P.P.P.P.P.P.K.K.K.P.P.P.P.",
"K.P.P.J.G.G.G.Z.Z.J.J.J.N.6 e 7 5 M ;.! @ 0 = 5 > 3 C C 0 - > #.R.!.Q.^.!.!.^.^.!.!.E.-.q . . 6 m.P.P.P.P.P.P.P.K.J.G.J.P.P.K.K.",
"K.P.P.K.J.G.G.Z.M.F.F.F.d.& e > > > -.#.@ 7 O + O 3 0 0 j l 8 = 9 -.Y.;.v.!.Y.E.T.#.q = : : . P K.J.P.P.J.J.P.J.G.G.G.G.K.P.K.K.",
"P.P.K.K.P.K.J.F.Z.Z.Z.Z.e.6 q > > Q ! -.@ : O t + : : O @ : 0 j 3 = : O e -.> 7 9 = 3 w l 7 @ 9.K.J.P.P.J.G.K.J.G.J.J.J.J.J.P.P.",
"P.P.P.P.P.P.P.K.J.Z.M.Z.Z.B > e e *.T *.@ o < n < o # x z , O = 3 0 0 : M { @ 3 3 0 3 - : - 6 m.P.P.P.P.I.K.K.K.K.K.P.J.G.G.K.P.",
"P.P.K.K.P.P.P.P.P.S.A.J.K.4.@ E M -._ ;.M ; g m u X r f.i.t.J s - @ - O *.-.O : = O - 1 O O D P.P.P.P.P.P.P.P.P.P.P.P.K.J.J.K.J.",
"P.P.K.K.P.P.P.P.P.P.P.P.P.N.i q [ ! { ,.v.;.s n g + # t.h.g.f.k.j.x o ! Q.E.q + s J u.u.O . 1.I.P.P.P.P.P.P.P.P.P.P.P.P.K.D.J.G.",
"P.K.K.P.P.P.S.A.S.P.P.P.P.P.3.@ #.;.;.v.Y.c.l c g h Y 2 t.g.h.z.l.f 9 R.R.c.*., y.g.k.S . O 6.I.K.S.S.S.A.A.A.S.P.P.P.P.P.P.J.J.",
"P.P.K.P.P.P.A.M.Z.P.K.P.P.P.B.D 5 ;.Y.c.c.Y.` u y ` E.! : s v x 4 9 >.!.[ 3 -.9 f r.z 3 e @ 0.Z.Z.Z.M.M.M.Z.Z.M.A.P.P.P.P.P.K.K.",
"P.P.P.P.K.K.A.M.A.P.P.S.S.S.P.m.N q { E ;.Y.,.h t #./.!.>.] T E #.R.^.R.0 < l ;.e 3 M c.#.# q.Z.M.M.M.M.Z.Z.F.Z.A.K.P.K.J.P.P.K.",
"P.P.P.S.Z.S.P.S.P.P.P.A.Z.A.P.P.N.1.V O q >.Y.W < ;./.^.!.^.~.~.^.^./.c.: - 3 c.Q.T.Q._.! * e.Z.Z.Z.Z.Z.G.G.G.A.K.J.K.K.K.P.P.K.",
"P.P.K.A.M.A.P.P.P.K.K.Z.Z.Z.A.H.K.I.A.P @ > -.{ q R.^.!.!.!.^.!.!.^.^.b.W C W %.Q.^._.).> B Z.F.G.G.G.G.G.G.J.K.P.K.P.K.K.P.P.P.",
"P.P.P.S.A.S.K.P.K.H.Z.Z.M.M.M.Z.Z.Z.J.S.3.& @ M -.E.!.T.Q.Q.^.^.^.^.^.x.%.-.,.b.!._.'.} @ 5.J.G.G.G.G.G.G.G.J.K.P.P.K.K.P.P.P.K.",
"S.S.P.P.P.P.P.J.F.Z.M.Z.Z.A.A.H.C.Z.G.J.I.s.B o ; E ;.T.!.^.^.^.^.^.^.Q.!.^./.(.`.(.[ o F F.G.G.G.G.G.G.G.G.J.P.P.P.J.J.P.P.P.P.",
"Z.M.A.P.K.P.K.G.F.Z.Z.F.K.P.P.P.S.J.J.J.K.U.7.O . . @ 9 [ >.T.!.^.^.^./.(.(.(.W.-.> # K V.J.G.G.G.F.Z.Z.Z.F.S.P.P.P.J.J.P.P.P.P.",
"A.Z.S.P.K.K.J.G.G.F.F.G.K.P.P.P.P.P.K.K.P.B.V O @ o X X o o : e E [ #.#.#.[ q = # N 7.F.G.G.G.F.Z.M.M.M.M.M.Z.S.K.P.K.K.P.K.J.K.",
"P.S.P.P.P.P.J.G.G.G.G.G.K.P.P.P.P.P.P.P.P.1.@ a A 8 o O 6 1   o o     . . . > : P S.K.J.J.G.J.Z.M.M.Z.A.A.A.A.S.J.K.P.P.P.J.G.J.",
"P.K.K.P.P.P.P.K.K.J.J.J.P.P.K.S.Z.Z.S.P.B.p 1 A / k O @ 1 S 1 ; > = e Q q M v.e P I.P.P.K.K.K.S.A.S.P.P.P.P.P.K.H.A.S.P.P.K.J.J.",
"P.P.P.P.P.P.P.P.P.P.P.P.P.P.K.S.M.M.Z.D.6.@ a A | A O $ - / X.- o @ 9 q : [ v.1 9.I.P.S.A.P.P.P.P.P.P.P.P.P.P.P.A.M.A.K.J.P.D.S.",
"P.P.P.A.Z.S.P.P.P.P.P.P.P.P.P.P.S.Z.M.M.B o @ 1 h 8 O 1 1 a X...@ : Q _ > q #.- 9.I.P.A.Z.S.P.P.P.P.P.P.P.P.K.P.A.M.A.K.J.P.P.S.",
"P.P.S.C.M.A.P.P.K.K.P.P.P.K.J.P.K.H.Z.7.$ C ` T 0 : o 1 8 , 8 /  .8 - = @ - @ = i 9.P.P.S.P.P.P.P.P.P.P.P.K.J.K.P.S.D.J.K.P.J.K.",
"K.K.P.S.A.S.P.J.J.G.K.P.P.P.K.K.J.G.G.2.O - w / ..! o # 1 1 - - S &.$.X.o.$.@ e > p B.P.P.P.P.P.J.K.P.P.P.K.J.K.P.P.K.F.J.K.J.K.",
"K.K.P.P.P.P.P.J.J.J.J.P.P.P.P.K.G.G.J.4.# t < # # # o # % # O X @ k  ./ A S # @ 9 # 9.I.P.P.P.P.J.J.P.P.P.P.P.P.P.P.S.H.J.P.P.P.",
"P.P.P.P.P.P.P.K.K.K.K.J.K.P.P.K.G.G.J.I % b n b b t O % 2 2 2 2 % % 1 1 & 2 2 = 9 # w.I.P.P.P.P.J.J.P.P.P.P.P.P.P.P.P.P.P.S.A.A.",
"P.K.J.P.P.P.P.S.A.S.D.Z.A.S.P.K.G.G.K.8.# g n n n g O # , , 1 1 1 % $ , - 1 1 = > & n.P.P.P.P.P.J.J.P.P.K.K.P.K.J.K.P.P.P.A.M.M.",
"P.P.K.K.P.P.A.Z.M.A.S.Z.M.M.A.P.H.Z.A.B.D # u g g r o 6 d a a a a d d d d A 8 o , <.S.P.P.P.P.P.J.J.P.P.P.P.P.K.G.J.K.P.P.S.C.A.",
"P.K.H.Z.A.S.M.M.A.S.P.S.Z.M.S.S.Z.M.Z.J.N.p o + O O @ 1 d k k k k k d - , A 8 * 5.M.Z.S.P.P.P.P.K.K.P.P.P.P.P.K.G.G.J.P.P.S.J.K.",
"D.J.F.M.M.M.M.A.P.P.P.P.A.C.S.Z.M.A.A.J.J.K . o o o O O # d a 8 a , - o o 7 8 i e.Z.M.A.P.P.P.P.K.K.P.P.D.A.Z.A.G.J.D.P.S.M.Z.K.",
"J.G.F.M.M.M.M.S.P.P.P.S.M.M.M.M.Z.P.P.K.J.a.D I 6 . X Z 1 @ @ @ O X o o O o o G A.Z.M.A.P.P.P.P.K.P.P.P.D.Z.M.A.K.K.P.P.S.M.Z.P.",
"J.G.J.Z.M.Z.S.P.P.P.P.S.Z.M.M.M.A.P.P.P.I.K.P.B.p O O @ @ # O B i O 1 i i 2 O 3.I.H.Z.M.A.S.S.A.Z.J.P.P.P.S.A.A.K.P.P.P.S.Z.S.P.",
"J.G.G.F.Z.H.K.P.P.S.Z.Z.A.M.Z.S.P.K.J.H.A.S.I.B.p O O O @ # O D D O @ # # # $ 1.I.J.Z.Z.Z.M.M.M.Z.H.P.P.P.P.S.Z.Z.S.P.P.S.Z.Z.S.",
"K.J.G.G.G.G.G.J.K.S.M.M.S.S.S.P.K.K.Z.Z.Z.Z.J.P.s.6.1.P K L 2.s.m.9.3.2.2.5.s.B.P.P.K.J.F.Z.Z.Z.A.D.P.P.P.P.P.S.A.S.P.P.P.S.A.S.",
"P.K.J.G.G.G.G.J.K.P.A.A.P.P.P.P.J.S.M.M.Z.M.A.P.P.I.J.Z.G.G.G.K.P.I.I.I.I.J.K.P.K.P.P.I.K.J.J.K.P.P.P.K.J.J.J.P.P.P.P.P.P.P.P.P.",
"K.K.K.G.J.G.G.J.K.P.K.J.K.D.P.P.P.P.A.S.A.M.A.K.K.J.Z.M.Z.J.J.K.P.P.P.P.P.P.P.P.P.P.P.P.P.D.P.P.P.K.K.J.J.G.J.K.P.P.P.P.K.K.P.P.",
"P.P.K.J.G.J.K.K.K.K.K.J.G.J.K.K.K.P.P.P.D.S.P.J.J.J.H.A.S.P.K.P.K.K.K.K.P.P.P.P.K.P.P.P.P.K.J.P.P.K.K.P.K.J.G.K.K.J.K.K.G.G.K.P.",
"P.K.K.K.K.K.P.P.K.P.P.K.K.J.K.K.K.P.P.K.P.P.P.P.K.P.D.P.P.P.J.K.J.J.K.P.K.P.P.P.J.K.K.K.P.P.J.K.P.J.K.D.K.J.K.P.J.G.J.K.G.G.K.P.",
"P.P.P.P.P.P.K.P.P.K.P.K.P.P.P.P.P.K.P.K.P.P.P.P.J.D.P.P.P.P.K.P.P.K.P.P.K.K.J.K.P.P.K.P.K.K.K.K.D.K.K.K.K.K.P.P.K.J.K.P.K.K.P.P."
};
