/* XPM */
static char *_842cccb0da94444e0dc432110deacd1yHlF4dwhy8XUkW7M[] = {
/* columns rows colors chars-per-pixel */
"64 64 242 2 ",
"   c #776146",
".  c #755F45",
"X  c #6B563E",
"o  c #604D37",
"O  c #624F39",
"+  c #725D43",
"@  c #796247",
"#  c #7B6449",
"$  c #7C654A",
"%  c #7D664B",
"&  c #7D664A",
"*  c #7B6549",
"=  c #745E44",
"-  c #67533C",
";  c #645039",
":  c #705B42",
">  c #766046",
",  c #796347",
"<  c #836B4F",
"1  c #856D51",
"2  c #856D50",
"3  c #836B4E",
"4  c #7E674B",
"5  c #745F44",
"6  c #6F5A41",
"7  c #67543C",
"8  c #624E38",
"9  c #5F4C37",
"0  c #64503A",
"q  c #6D5840",
"w  c #7A6348",
"e  c #7A6449",
"r  c #826A4E",
"t  c #886F52",
"y  c #8C7256",
"u  c #907659",
"i  c #93785B",
"p  c #91775A",
"a  c #8D7457",
"s  c #886F53",
"d  c #786247",
"f  c #614E38",
"g  c #68543C",
"h  c #796348",
"j  c #846C4F",
"k  c #8B7255",
"l  c #94795B",
"z  c #93785A",
"x  c #8C7356",
"c  c #64513A",
"v  c #756045",
"b  c #766045",
"n  c #8F7558",
"m  c #94795C",
"M  c #957A5D",
"N  c #967B5D",
"B  c #8D7357",
"V  c #6E5940",
"C  c #66523B",
"Z  c #624F38",
"A  c #69553D",
"S  c #897054",
"D  c #92775A",
"F  c #957A5C",
"G  c #977B5E",
"H  c #987C5F",
"J  c #987D5F",
"K  c #977C5E",
"L  c #967B5E",
"P  c #897053",
"I  c #80684C",
"U  c #6A563E",
"Y  c #634F39",
"T  c #735D44",
"R  c #987C5E",
"E  c #997D60",
"W  c #9B7F61",
"Q  c #846C50",
"!  c #6C583F",
"~  c #6E5A40",
"^  c #6F5A40",
"/  c #735E44",
"(  c #836A4F",
")  c #8A7054",
"_  c #907559",
"`  c #997D5F",
"'  c #8D7356",
"]  c #7A6448",
"[  c #68543D",
"{  c #887053",
"}  c #9A7E60",
"|  c #917659",
" . c #866D51",
".. c #876E52",
"X. c #65503A",
"o. c #7B644A",
"O. c #917759",
"+. c #80684D",
"@. c #65513A",
"#. c #614D38",
"$. c #715B43",
"%. c #866D52",
"&. c #997E60",
"*. c #967A5D",
"=. c #8B7154",
"-. c #7D654B",
";. c #7B6448",
":. c #8A7154",
">. c #66513B",
",. c #7D654C",
"<. c #92775B",
"1. c #816A4E",
"2. c #866E51",
"3. c #7E664C",
"4. c #755E45",
"5. c #6E5941",
"6. c #6C573F",
"7. c #6A553E",
"8. c #765F46",
"9. c #604C37",
"0. c #6F5942",
"q. c #91765A",
"w. c #907658",
"e. c #7F684C",
"r. c #766146",
"t. c #80694D",
"y. c #92785B",
"u. c #826A4F",
"i. c #725C44",
"p. c #69543D",
"a. c #5F4C36",
"s. c #786147",
"d. c #8E7457",
"f. c #715C42",
"g. c #8A7155",
"h. c #786248",
"j. c #81694D",
"k. c #644F3A",
"l. c #7B634A",
"z. c #81694E",
"x. c #635039",
"c. c #705B41",
"v. c #705A42",
"b. c #745D45",
"n. c #786146",
"m. c #876F52",
"M. c #846B4F",
"N. c #786246",
"B. c #8D7456",
"V. c #5E4B36",
"C. c #8F7557",
"Z. c #7C6549",
"A. c #715B42",
"S. c #755F44",
"D. c #8E7557",
"F. c #9B7E61",
"G. c #95795C",
"H. c #6C5840",
"J. c #715C43",
"K. c #896F53",
"L. c #826B4E",
"P. c #6D583F",
"I. c #826B4F",
"U. c #796248",
"Y. c #65513B",
"T. c #67523B",
"R. c #6A553D",
"E. c #735D43",
"W. c #7E674C",
"Q. c #776147",
"!. c #705A41",
"~. c #6A563D",
"^. c #93795B",
"/. c #8F7658",
"(. c #977B5D",
"). c #66533B",
"_. c #725C43",
"`. c #7F674C",
"'. c #7E664B",
"]. c #836C4F",
"[. c #6E5840",
"{. c #68533C",
"}. c #745E45",
"|. c #6B573E",
" X c #856C50",
".X c #7F684D",
"XX c #8B7155",
"oX c #9A7F61",
"OX c #92785A",
"+X c #876F53",
"@X c #8E7458",
"#X c #614D37",
"$X c #66533C",
"%X c #735E43",
"&X c #7D654A",
"*X c #6B573F",
"=X c #6B563F",
"-X c #63503A",
";X c #7F674B",
":X c #9A7E61",
">X c #67533B",
",X c #65523A",
"<X c #65523B",
"1X c #876E51",
"2X c #7A6349",
"3X c #644F39",
"4X c #6F5941",
"5X c #886F54",
"6X c #7C664A",
"7X c #7C654B",
"8X c #796249",
"9X c #94785B",
"0X c #6C5740",
"qX c #7B654A",
"wX c #745F45",
"eX c #6D5940",
"rX c #8F7458",
"tX c #6F5B41",
"yX c #846B50",
"uX c #886E52",
"iX c #6C573E",
"pX c #776046",
"aX c #907558",
"sX c #9C7F61",
"dX c #776047",
"fX c #6D573F",
"gX c #624E39",
"hX c #897154",
"jX c #766047",
"kX c #786148",
"lX c #836A4E",
"zX c #735D45",
"xX c #7C664B",
"cX c #9A7F60",
"vX c #866D50",
"bX c #68533D",
"nX c #876E53",
"mX c #6D5740",
"MX c #8C7255",
"NX c #8E7558",
"BX c #856C51",
"VX c white",
/* pixels */
"    . X o O + @ # $ % & * @ = - ; : >     , & < 1 1 1 2 3 4 * ,       5 6 7 8 9 0 q =   w # e e * % r t y u i p a y s < 4 # d   ",
"    . X f g h j k u l z x <   - c : v b   % s n p i m M N m B 1 4 * # e @ . V C f Z A 5 1 y S S B D F G H J K F m L G F n P I , ",
"    . U Y T y N R E W W E m Q q Z C ! ~ ^ : / > % ( ) _ M J ` K m n ' a x j ] + [ o o U { K J J E } } W W } | 1  .i E l ..P ' < ",
"    . X X.o.m F u i E W W ` O.+.q @.Y Z f f o #.Y C X $.e %.| H W &.K K J *.=.# + - 9 Y -.L W W J i D R W K  .w ] t m ..;.& :.a ",
"    b V >.,.<. .$ 1.l W ` n 2.S S 3.4.5.6.7.- >.0 O #.o O [ 8.:.K K n ' G W M < d : Y 9.0.q.W } w.e.4 ' ` G < d d < O.e.  @ Q n ",
"    b V C ,.u 4 r.* n } N r h t.m G m i y.| y s u.o.i.p.8 a.0 s.y d.4 % a ` E y # 5 A 9 C %.` J :.w d Q K K Q d @  .p e.@ 4 k n ",
"    v ! >.,.u 4 r.* n } F % > % F W H N N K K R K N y.s 8.0 f f.r ..w w g.` &.d.# b 6 f 8 h.m J :.w d Q K &.d.+.j.n N )  .d.i t ",
"    = - k.l.D 1 * z.l W N r # r N K s e.j.Q S n F H } K s 6 x.c.j.k e.e.u } H s w   + Y o v.x J u j.e.d.` W ` *.N ` } H K N ' & ",
"  . V f #.b.i m ' D E W &.p k p J w.&   n.d w * e...i N m.= c c.M.m D D J W N j.N.  = C o U 1.N ` m i H W W W W W W W W K B.4 d ",
"5 V x.V.9.$.i W ` } W W W } ` } &.C.#             Z.t k $ A.c f...H } E W W N +.    S.A o @.d D.&.W F.W W W W W W W &.G.P & N.  ",
"X Y 9 V.a.H.u W W W W W W W W W } | &         n.] t...4   ~ ; J.K.K *.i &.W H s ]   S.X o f f.< M W W W W W W W } G d.r ]   . = ",
"#.8 @.x.o 6.k &.W W W W W W W W W G ..& # * $ j.P d.L.@ v P.x.+ k *.) < D K } m I.d b P.#.9 A U.k J W W W W W J z ..&   S.+ 6.Y.",
"T.V f.- 8 6 s J W W W W W W W &.K K N u d.n D M G d.$   S.R.Y . d.G y 1.I 2 N R t h   E.C 9 Y f.W._ H &.&.H m :.W.Q./ !.~.c 8 f ",
"= b E.@.x.= S J W W W W W W &.|  .S ^./.n (.} W R  .,   = ).0   w.&.K x # Z.| N Q d     _.@.#.A 5 `.:.D.'  .'.> c.X Y.8 f Z ).P.",
"  > c.Y T.s.' ` W W W W W W K  .w Z.Q % `./.} W F e.    + 0 - h i W } p 4 e.i N ].d   # < > - O X E.r.> E.[.{.Y 8 f 8 C q }.S.b ",
"  . |.8 R.] D } W W W W W W N < N.  w   w :.J } u $   b q Y ! $ F W W K B.n J J g.$ #  X^.' d - 8 ; @.O f 8 f 8 @.U T .XXXy *   ",
"  5 {.f 6.+.*.H m N H H ` W K  .] ] 4 d * ' ` ` :.]   = {.x.+ r L W W oX` &.W W N k ) D L N { 5 - #.9 Y ).q T . v $ S M R a #   ",
"  = @.#.6 Q OXk I < +Xs ' F L @X1 Q 4 d 4 l W K  .,   f.; - > t H W W W W W W W W ` G u t u | Z.+ [ Y 6 U.m.u s `.{ N W N j d   ",
"  + O #.6 e 4 d b d w w Z.I.s S d.y Z.  & i W L r d . 6.Y q * n } W W W W W W W W W K 2.$ ..O.% S.R.0 . s N F j., t.F } u $     ",
"> A.f #X- - $X).|.f.5 b   d h # I ( h   $ p } m '.  / C 0 .  .N } W W W W W W W W W H P `.P O.& = 7 ).@ D &.w.* r.* u K :.]     ",
"b ^ f V.#XY c x.f O g c.S.r.    n.@ d w r M } u Z.b c.x.R.& | m G.} W W W W W W W W } F n l B.* %XY.C h F } | &X  &X| K :.w     ",
"b ~ f 9 p.s.z.l.*XO #.Y U f.S.      & ..p } J S w . X 0 = P m { s K &.R &.W W W W W W } &.*.j d f.O 8 . y.W N Q & 1 N &./.4 n.  ",
"b ^ f 8 s.u K m 1 T g O f ; U f..   * k m N | I N.E.C [ z.M H B B N w.m.u &.W W W W W W } p & v q #.9.=X%.N G.x a M } W H a 4 d ",
"b c.f -X+.K W W m t.. !.g O f c 6.+ b $ r L.;X  %X6.Y A.B } W ` ` N 2 * 2 K :X} W W W W R s w = g f 0 x.= ..2 e.:.J W W W J ' * ",
"  + O 0 z.G &.} J :.] b = !.g Y 8 @.6.f.5 S.E.q >X#.f > l W W W W K 2 * 2 *.i O.K W W } u W.  _.X.>XP.Y - > w , Q K W W W W m +.",
"  = C c .Xy.d.D H d.# d $ d = 6 - Z f O ,X<XY 8 8 #.f }.i W W W W &.u m.u ^.r 4 ' ` } i 3 d . 6.Y P.E.g Y V b ;.1XK W ` K ` *.< ",
"  . ~.c 2XP e. .N u 4 `.' 2 *   = 6 g 3X8 8 Y {.q P.Y 4X@X} } W W W &.R ` u Z.d 1 N i  .w b !.0 @.E.  !.x.g b M.i } H '  .' D +.",
"  b V Y.h.s e.1 K K ' n H N k W.d b 5 + 6 ^ _.= v E.c p.5X` W W W W W W W l j.6Xs d.3 , 5 V Y.Y A.e.t.Q.[ x.E.s H :XOX`.@ 4 P $ ",
"  b ~ <X2Xu d.D &.W ` &.W W H n Q $ ] w h ] $ & Z.> A c 7XM W W W W W W W K B 1 Q % b c.R.O 8 q  .m m ..J.Y q  .J } n #   w z.w ",
"  b ~ @.8Xi H } W W W W W W W } N u :.s ..:.n 9X_ z.f.Y 0Xg.` W W W } K i a  XqX> : g O #.3XV z.F W W m $ T.C 4 M } w.$   h 4 , ",
"  b ~ c }...D &.W W W W W W W W W } J m ..2 D } E _ h g x.> B M L F n  .& d wXeXC Z 8 @.6.8.< i } W W J s 5.x.}.rX} N j & j.z.h ",
"  b ~ c tXw ..K W W } K J oXW W W W W i 4 # XXK K m t.: Y - > 4 +.% @ . 6 A c 8 O [ i.`.S q.L } W W W W ^.U.0 *XyXK } F O.| < , ",
"  b ~ @./ * uXR W } l m.x J W W W W :Xi '.# XXF n i < . {.o x.{.X A C Y f 8 0 7.8...OXG ` } W &.` W W W ` ..[ Y.U.u } W } K s w ",
"  b V [ 1.g.D } W } w.4 2 K W W W W W K ) ..i E H N  X  |.#.#.8 Z Z O 8 o A E.e.u H ` H } W K n d.K W W W u 4XY _.< *.W W J S e ",
"  S.X 6.g.K } W W } i Q XXJ W W W W W :XH K } W W J S s.X Y ! + / + f.iXx.V # n } ` ' t i R ' '.% ' ` W W M e 0 U h k H W E B * ",
"  E.>X6 a } W ` ` W &.L H oXW W W W W W W W W W W ` y Q.>X@.pXs aXs w 6 ; ^ ;XF W M e.# P m Q d d Q K W W ` ..{.c + W.n &.:XD & ",
"v V ; = D W K ' d.J W W W W W W W W W W W W W W W J P / x.7.r M } M Q + 0 q j.N sXM % @  .^.1 d d 2 K W W } @X6 8 7.v r D } F +.",
"c.C c d F } w.4 e.N W W W W W W W W W W W W W W W K ( 6.Y f.+XJ W } u U.<XA e.N W K  .t.d.K n e.`.d.` W W W m s.0 8 6.. j._ | j.",
"c o @.d i &.w.% 4 OX&.W W W W W W W W W W W W W } | dX0 >X> S J W W G r U ;   O.} } K N ` :XJ i i J W W W W N e.V Y f ).V > 2X= ",
"#.8 8 + d.} K XXQ 1 n ` W W W W W W W :XW W W } ^..X[ Y V h XXN E :XK S J.Y fX< OX} W W W W W :X:XoX` ` oXW N I.v |.o a.o f O gX",
"6.P.Y U ..` W M  .# r N W W W W W } F m } W R u e.6.O A = % d.k u G n 1 b - @.+ I l W W W W W W W K x x K W N r S.A 9.9 #.f O 0 ",
". = g 0 2XF W K  .h +.F H } } W W N M.r F F P # q O C f.@ ..D < S y.+.h   V Y - s.C.` ` K &.W W } w.4 4 q.} F % q f o - V f.+ / ",
"  b !.x.*XhX&.E d.I.g.K H ` (.} W N j.% k <   6.O 0 6 r.+.z K d.p m +.# & . {.Y : m.*.' ..u &.W } aX* Z.u J @X. 0 Y 5.h.* e d   ",
"d w > R.x.jXi :X` L H :X:XoX} W W J g.e.# %XA 8 0 V > e.n ` W ` } J n k s w !.; C % u t.] 1 N J H l j 2 M M +.A c kX@XF m ' 4 d ",
"4 P  X. 0 [ yXK W W W W W W W W ` D lXb q c 8 Y.6 . $ a J W W W W W &.J q.6X5 U Y _.S & d < OX:.:.M N G R S 6 0 zX_ W W W R :.# ",
"s M N ..4XY : k J W W W W W } N x xX: >XZ O A f.b   $ p } W W W W W W W N Q w + @.p.r M.e.P d.'.& w.} W O.Q.0 U s ` W W W } u $ ",
"n H W M +.- 0 kXd.H W W cXR | Q > U Z 8 ).V . ] w   * n } W W } G m J W ` D  .d iX@.kX| i N w.& 6Xw.&.m `.- @.2Xm W W W W W m % ",
"O.O.M E n T O [ # k m *.D K.% _.C f ; 6.= > & P < @ $ w.} W W K ..j.aXH D x d.e.+ 0 0.p } W N ..m.N M u.=XY v.S ` W W W W W F 4 ",
"C.< vXG K ( A O q h 4 +.& Q.6 0 8 g + e +.w $ d.d.r 1 N W W W G < * XXm 1 W.XX..  {.bXnX` W :XR G F 1 q O A $ i W W W W W W ^.% ",
"O.d.XXR :X_ . 0 @.f.r.b E.6.3XO mXU.Q C.O.+.& w.H N K } W W W H ) r | N 1 W.y x w P.@.kX| ` &.H D r q O >X. K.H W W &.K K R n $ ",
"^.R R K K F .X6.O A : V - 8 @.J.r u G } J ' K.F W W W W W W W } R N ` N B MXl D.# f.Y p.$ s k 1 d A O C J.e.i } W G D.1 Q MXx $ ",
"l &.J XXs m { . ).#.8 8 O 7.2Xy N } W W W ` H } W W W W W W W W W W H S < l } u $ E.-Xo Y.6.V A Y O [ E.$ ' ` W N s & , @ e.hX$ ",
"l &.K t vXF n w V 8 #.>XA.Q l ` H J oXW J R } W W W W W W W W W W W K  .j.M W m 4 / <XV.V.o #XO Y.V   e.MXK W ` ' $       $ P $ ",
"OX&.} D d.M OX$ %X[ <X+ z.m W K ) y H G XX..q.&.W W W W W W W W W W &.O.d.J W G j . C 9 8 C 0XdX% u.:.D H W W ` k #       4 P $ ",
"NXJ E d.t.t O.& . P.@.. s H W M 1.1 M NX% w 2 K W W W W W W W W W W W &.` oXW J S   C o R.. BXi N K J } W W W } l j $ # '.+Xs # ",
"x R J S w `.n % b 6 0 : BXK W R XXx M :.w   4 M W W W :XJ E W W W W W W W W W &.d.s.@.8 6 ] d.&.W W W W W W W W } N | n p i Q , ",
"k G ` x W.j u % b V 8 Y.Q.aXH } J J J ' # N.r N W W W (.k u ` W W W W W W W W &.C.  Y ; + # y ` W W W W ` N J W W W } &.} K 2 , ",
"K.G W G u 9Xi & = R.o 9 C h.S G W W oXl j t.d.` W W &.n t.) H } R ` W W W W W E y = O {.5 @ < F W W W } u < d.` W W W W W ` y # ",
" .N W W } } D # 6 ; Y @.f @.}.y ` W W } G N ` W W W ` B 2.i E i t ' ` W W W W G M.P.Y q b   # P *.} W E d.t.k ` W W W W W &.D.Z.",
"Q N W W W ` XX. C O 6.f.[ #.Y.o.OXcXW W W W W W W W :XH K } J XXZ.t.N W W W &.rXd @.0 +       #  .| K } M d.F } W W W W W &.d.Z.",
"e.F W W W m & A 8 [ / r.+ - #.7.( F W W W W W W W W W W W W J g.# `.M W W &.D +.q O U .         , % P G } E W W W W W W W ` :.e ",
"% m W W K 1 6.8 C f.r.  r.f.@.8 v. Xm } W W W W W W W W W W } i ..XXH } G rXI f.0 0 f.              % x m N G H ` &.} W W *. X, ",
"$ u } K S 4XO C f.b       b V 8 @.. r n N ` W W W W W W W W W ` F m m n  Xw 6 c O 6..               d # & I j s MXd.n z D :.Z.  ",
"Z.C.K k J.8 ; c.b           E.@.f V   '.t D &.W W W W W W W :XG u s t.$ b 6.Y o {.%X                        @ ] # Z.$ & & #     "
};
