/* XPM */
static char *_ee49426c5614073f87d003aad7e48abcvFrpuhZv0Fth5vz[] = {
/* columns rows colors chars-per-pixel */
"64 64 141 2 ",
"   c #000000",
".  c #0A0601",
"X  c #0D0A05",
"o  c #140E07",
"O  c #1D0F00",
"+  c #140E08",
"@  c #161008",
"#  c #181109",
"$  c #221707",
"%  c #241908",
"&  c #2D1F11",
"*  c #2E2211",
"=  c #332412",
"-  c #3E2C17",
";  c #5C2F01",
":  c #5F3204",
">  c #432E17",
",  c #442F18",
"<  c #443016",
"1  c #4E361D",
"2  c #533C1E",
"3  c #633504",
"4  c #7F4507",
"5  c #6D4B19",
"6  c #724F19",
"7  c #74521C",
"8  c #6E4C24",
"9  c #714D2B",
"0  c #6F5229",
"q  c #705226",
"w  c #75552B",
"e  c #77582B",
"r  c #804507",
"t  c #954D02",
"y  c #A55502",
"u  c #A95701",
"i  c #936623",
"p  c #9A6E36",
"a  c #9D6D3C",
"s  c #9C7137",
"d  c #9D7439",
"f  c #AE7926",
"g  c #AF7A29",
"h  c #A67439",
"j  c #AB773B",
"k  c #A77C3D",
"l  c #A97C3E",
"z  c #C06302",
"x  c #DA6F01",
"c  c #DC7203",
"v  c #E17403",
"b  c #E17C0C",
"n  c #A77440",
"m  c #A97441",
"M  c #AD7B40",
"N  c #B47D45",
"B  c #BF842B",
"V  c #C7871F",
"C  c #E58513",
"Z  c #EA8B1A",
"A  c #E6961F",
"S  c #ED911F",
"D  c #CB8E25",
"F  c #C1862A",
"G  c #C3882B",
"H  c #D49B2C",
"J  c #DF9A31",
"K  c #E69721",
"L  c #E69821",
"P  c #F19824",
"I  c #E19B32",
"U  c #DBAA3C",
"Y  c #E9A127",
"T  c #EAA329",
"R  c #ECA92E",
"E  c #F0AF34",
"W  c #FFAE35",
"Q  c #FFAF38",
"!  c #F0B135",
"~  c #FFB136",
"^  c #FFB13A",
"/  c #F2BE3D",
"(  c #F3C03F",
")  c #B48442",
"_  c #BF8342",
"`  c #BB8A44",
"'  c #BC8248",
"]  c #C18544",
"[  c #C28C45",
"{  c #C4874B",
"}  c #C48C49",
"|  c #C98B4D",
" . c #C49147",
".. c #C99449",
"X. c #E4B743",
"o. c #FFB442",
"O. c #FFBB40",
"+. c #ECAF59",
"@. c #FFBE5B",
"#. c #DBB270",
"$. c #ECB47A",
"%. c #F3C140",
"&. c #FFC345",
"*. c #F5CA47",
"=. c #FFC748",
"-. c #F6CD49",
";. c #FFC849",
":. c #FCD14D",
">. c #FFD551",
",. c #FFDA55",
"<. c #FFDA56",
"1. c #FEE65C",
"2. c #FFE95F",
"3. c #FFCE68",
"4. c #FFD360",
"5. c #F6D069",
"6. c #FFC877",
"7. c #FFC979",
"8. c #FFEA60",
"9. c #FFEA6F",
"0. c #FFED7E",
"q. c #E4C28D",
"w. c #FFD28C",
"e. c #FFDC99",
"r. c #FFEF8F",
"t. c #FFF091",
"y. c #FFDDA3",
"u. c #FFDEAA",
"i. c #F5D8B8",
"p. c #FFE5A3",
"a. c #FFE9A9",
"s. c #FFF1A3",
"d. c #FFE7BF",
"f. c #FFF5B6",
"g. c #FFF5B8",
"h. c #FFECCE",
"j. c #FFF6C5",
"k. c #FFF7C8",
"l. c #FFFEF2",
"z. c #FFFFFA",
"x. c #FFFFFF",
/* pixels */
"{ { }  . . . .} { }  . .} }  . .{ { }  . . .{ {  . .} }  . . . . . . . . .[ ] ] ] ] [ [ [  .} } }  . . . .} }  . .} } } }  . . .",
"{ { } } } } {  .} } } } } }  . .} { { }  . .} }  . .} }  . .} } } } } } } [ _ ] ] [ [ [ [ } { ] ] ] [ } } } {  . .} } {  . .[ [ ",
"} }  . .} { ] [  .{ { { { { { { } } } { [ [ [ { }  . . . .} { { { ] ] ] [ } [ [ } } { { { { ] _ ] ] [ [  . .}  .} { }  . .[ _ ] ",
"} }  . .[ ] ] [ } { { { { ] ] ] ] ] [ ] _ _ ] { { { { } } { { { { ] _ _ ] { ] ] { { { { { { { [ [  . .}  .} { { { { { [ ] ] _ ] ",
"} }  . ._ ]  .{ { { { { { { ] ] ] _ ] ] ] [ { } { { { { { { { { { { [ [ { { { { { { { { { } }  . . . .}  .{ { { { { ] _ _ _ ] [ ",
" .} } [ ] [  .} } { { { { { { { } [ { { }  . . . . . . .} | | | | }  . . . .} } } } }  . . .[ [ [ [  . . .} } } { { ] _ ] [ }  .",
"} }  . .[ [  . . .} { } } } } { { }  . . . .) d d d d d d a a a a d d d d d d d d )  . . .[ ] _ _ _ ] [ [ }  . .[ _ _ ] [ } }  .",
"{ } } ] _ ] }  . . . . . . . .} { {  . . . .e X X X X X X X X X X X X X X X X X X e  . .[ ] _ ] [ ] ] ] ] { {  .[ _ ] [ } {  . .",
" . .} ] ] { }  . . . . . . . . .} }  . . ...0                                     q .. . .} } { } { } { { { {  . .[  . .} }  . .",
" . .{ { { { {  . . .[ [ ] ] ] ] M h h h l l q % % % % % % % % % % % % % % % % % % q l l l l n N { { { { { { {  . . . .} { { } } ",
" . .{ { { { } } } ] _ _ _ _ ] ' 1 o o o @ + 5 I I I I I I I I I I I I I I I I I I 5 + @ @ @ + 1 { { { { { { {  . . . .} { { }  .",
" .} { { }  .} { { ] ] { { { { { -           5 ^ ^ ^ ^ ^ ^ ^ ^ ^ ^ ^ ^ ^ ^ ^ ^ ^ ^ 5           - [ } } } { { {  . . . . .{ { {  .",
" .} { }  . .{ { { { { { { ' ' N , . X X X . 7 o.o.o.^ ^ ^ ^ ^ ^ ^ ^ ^ ^ ^ ^ ^ ^ ^ 6 . . . . . < ) ` `  .} } }  .} }  .} { { { } ",
" .} { }  . .{ { { { { { ' 2 & = i G F F F F #.h.h.p.,.,.,.,.,.,.,.,.,.,.,.,.,.,.,.D y y y y u r = * 2 ` }  . . . . .} { { { {  .",
"}  . . .} } { { { { { { ' &     f ^ ^ ^ ^ ~ w.x.x.k.8.2.2.2.2.2.2.2.2.2.2.2.2.2.2.T c c c c v t     * ` } { { }  . . .{ { { }  .",
"{ { }  .} { { { { { { { N =   . g ^ ^ ^ ^ ^ w.z.z.j.1.1.1.1.1.1.1.1.1.1.1.1.1.2.2.T c c c c c t .   = N { { { { }  .} }  .} { { ",
"{ { }  . .} }  . .N 1 - , i f g q.d.d.d.d.d.a.r.t.5.K A A A A A A A A A A K -.2.2.:.%.%.%.%.%.H t t r > - 1 N { {  .} }  . .{ { ",
"{ { {  . . . . . .k o   . G ^ ^ d.x.x.x.x.x.f.1.2./ c x x x x x x x x x x c / 2.2.2.2.2.2.2.8.%.c v y .   + m | {  . .{ {  . . .",
"{ { {  . . . . . .l @   X F ^ ^ d.x.z.x.x.x.g.2.8./ c c c c c c c c c c c c %.8.2.2.2.2.2.2.2.%.c c y .   # m { }  . .{ { [ [ [ ",
"} { } } } }  . . .l @   X F ^ ^ d.x.x.i.$.$.+.R R T S S S S S S S S S S S S T R R R R R %.2.2.%.c c y .   # l  . . . . . .] ] [ ",
" .}  .{ { { }  . .l @   X F ^ ^ d.x.x.$.x x x x x C Q ^ ^ ^ ^ ^ ^ ^ ^ ^ ^ Q C x x x x x Y 2.2.%.c c y .   # l  . . . . . .] ] { ",
"}  . .} { } }  ...l +   . F ~ ^ d.x.x.$.x c c c x C Q ^ ^ ^ ^ ^ ^ ^ ^ Q Q W C x x c c x Y 2.2.( c c y .   @ l .. . .[  . .[ _ ] ",
" . . . .} } ) e 0 q 5 5 7 #.w.w.a.f.g.+.x c b Z Z P Q ^ ^ ^ ^ ^ ^ ^ ^ &.;.=.E Y T C c x Y 2.2.:.T T V 3 : 3 8 0 e ) ] [  . .[ [ ",
"}  . . . . .d X   % I ^ o.h.x.z.r.1.2.R x c Z ^ ^ ^ ^ ^ ^ ^ ^ ^ ^ ^ ^ ,.2.2.2.2.2.Y x x Y 2.2.2.2.2.*.c c z O   X s ] ]  . .} } ",
" . . .}  . .d X   % I ^ o.h.x.z.t.2.8.R x x Z ^ ^ ^ ^ ^ ^ Q Q Q Q Q ^ ,.2.2.2.2.2.Y x x Y 2.2.2.2.2.*.c c z O   X d [ ]  .} }  .",
" . . . . . .a X   % I ^ o.p.k.j.5./ / T C C P ^ ^ ^ ^ ^ ^ &.&.&.&.&.=.1.2.2.1.2.2./ L L ! >.>.,.1.2.*.c c z O   X d  . . .{ { { ",
" . . . .} } a X   % I ^ ^ ,.8.1.K c c S ^ Q Q ^ ^ ^ ^ Q O.1.1.1.1.1.1.2.2.2.2.2.2.1.1.1.:.^ Q &.1.2.*.c c z O   X d  . . .} { } ",
" . .} { { | a X   % I ^ ^ ,.2.1.A x c S ^ ^ ^ ^ ^ ^ Q Q O.1.2.2.2.2.2.2.2.2.2.2.2.2.2.2.:.^ Q &.1.2.*.c c z O   X d } }  . . . .",
"}  . .{ { | a X   % I ^ ^ ,.2.1.A x c S ^ ^ ^ ^ ^ ^ O.O.&.1.2.2.2.2.2.2.2.2.2.2.2.9.0.0.4.^ Q &.1.2.*.c c z O   X a | {  . .} } ",
"}  . .} { | a X   % I ^ ^ ,.2.1.A x c S ^ ^ ^ ^ Q &.1.1.1.2.2.2.2.2.2.1.2.2.2.2.2.f.l.l.y.^ Q &.1.2.*.c c z O   X a | { }  .} } ",
" . .} }  .} a X   % I ^ ^ ,.2.1.A x c S ^ ^ ^ ^ Q &.1.2.2.2.2.2.2.2.2.2.2.2.2.2.2.g.x.x.u.^ ^ &.1.2.*.c c z O   X a { { { {  . .",
" . . . . . .d X   % I ^ ^ ,.2.1.A x c S ^ ^ ^ ^ Q &.1.2.2.1.1.1.2.2.2.2.2.2.2.2.2.f.x.x.u.^ ^ &.2.2.*.c c z O   X d  .} { { }  .",
" . . .}  . .d X   % I ^ ^ ,.2.1.A x c S ^ ^ ^ ^ Q &.1.2.2.2.2.2.2.1.2.2.2.2.1.2.2.f.x.x.u.^ Q &.2.2.*.c c z O   X d  .} { { } } ",
" . .} }  . .d X   % I ^ ^ ,.2.1.A x c S ^ ^ ^ ^ Q &.1.2.2.2.2.2.2.1.2.2.2.2.2.2.2.f.x.x.u.^ Q &.2.2.*.c c z O   X d  . .} } { { ",
" .} }  . . .d X   % I ^ ^ ,.2.1.A x c S ^ ^ ^ ^ ^ =.1.2.2.2.2.1.2.2.2.2.2.2.2.2.2.f.x.x.u.^ Q &.1.2.*.c c z O   X d  . . . .{ { ",
" . .}  . . .p X   % I ^ ^ ,.2.1.A x c S ^ Q &.,.,.1.2.2.2.2.2.2.2.2.2.2.2.2.2.2.2.f.x.x.u.^ Q &.1.2.*.c c z O   X d  . . . .} } ",
" . . . .}  .s X   % I ^ ^ ,.2.1.A x c S ^ Q ;.2.2.2.2.2.2.2.2.2.2.2.2.2.2.2.2.2.2.f.x.x.u.^ Q &.1.2.*.c c z O   X d  .{ {  . . .",
" . . .[ ] } d X   % I ^ ^ ,.2.1.K c c S Q W =.2.2.2.2.2.2.2.2.2.2.2.2.2.2.2.2.8.8.f.z.z.u.^ ^ &.1.2.*.c c z O   X a  .} }  . . .",
" . .} [ _ [ d X   % I ^ ^ ,.2.1.-./ %.T C C E 2.2.2.2.2.2.2.2.2.1.2.2.2.2.2.s.k.k.e.6.7.3.>.>.,.1.2.*.c c z O   X d  .} }  . . .",
" . . .[ ] } d X   % I ^ ^ ,.2.2.2.2.8.R x x Y 2.2.2.2.2.2.2.2.2.2.2.2.2.1.8.k.x.x.w.W W =.2.2.2.2.2.*.c c z O   X d } }  . . .} ",
"[ [  . . . .d X   % I ^ ^ ,.2.2.2.2.2.R x x T 2.2.2.2.2.2.2.2.2.2.2.2.2.2.8.k.x.z.w.W Q =.2.2.2.2.2.*.c c z O   X d } {  . . . .",
"] _ [  .}  .) w 9 8 5 5 7 U ;.;.,.2.2.R x c C Y Y / 1.2.9.f.g.f.f.f.f.f.f.f.e.w.w.@.Q Q =.2.2.:.T T V 3 ; : 8 q e ) { {  . . . .",
"] ] [  .} } { | | m +   . F ^ ^ >.2.2.R x c c x x L 1.2.0.l.x.x.x.x.x.x.x.z.6.W W Q ^ Q =.2.2.( c c y .   + j .. . .} }  .} { } ",
" .[  . . . .{ { | m +   X F ^ ^ >.2.2.R x x x x x L 1.2.0.l.x.x.x.x.x.x.x.z.7.W Q Q Q Q =.2.2.%.c c y .   @ h } { }  . . .{ { { ",
" .} }  . . . .} } m +   X F ^ ^ >.2.2.%.Y Y Y Y Y ! :.:.4.y.u.u.u.u.u.u.u.u.3.=.=.=.=.=.>.2.2.%.c c y .   # l  .{ [  . . .} { } ",
" . . . . . . . . .l @   X F ^ ^ >.2.2.2.2.2.2.2.2.>.^ ^ ^ ^ ^ ^ ^ ^ ^ ^ ^ ^ >.2.2.2.2.2.2.2.2.%.c c y .   # l  .[ _ ] } {  . .[ ",
" . . .] ] [  . . .k o   . G ^ ^ >.2.2.2.2.2.2.2.2.>.Q Q Q Q Q Q Q Q Q Q Q ^ >.2.2.2.2.2.2.2.8.%.c v y .   + l  .[ _ ] } {  . .[ ",
" . .[ ] _ [  . .} ) 2 - < i f f X.>.>.>.>.>.,.2.2.,.&.&.&.&.&.&.&.&.&.&.&.&.,.2.2.:.( %.%.%.%.H t t 4 < - 2 N }  .[ } { }  .{ } ",
"} }  .[ [ [  .{ { { [  .) =   . f ^ ^ ^ ^ ^ ;.2.2.1.1.1.1.1.1.1.1.1.1.1.1.1.1.2.2.T c c c c c t .   = ` [ [ { }  . .} { { } { } ",
" .}  . . . . .{ { { }  .` *     f ^ ^ ^ ^ ^ ;.2.2.2.2.2.2.2.2.2.2.2.2.2.2.2.2.2.2.T c c c c v t     * `  . . . . . .[ { {  . . .",
" . . . . . . .} } } } { ` 2 * = i F B B B B U ,.,.,.,.,.,.,.,.,.,.,.,.,.,.,.,.,.,.D y y y y y 4 = * 2 `  . . . . . . . . .[ ] [ ",
" .} {  . . . .[ [ [ } { [ ` ` ) , . X X X . 7 ^ ^ ^ ^ ^ ^ ^ ^ ^ ^ ^ ^ ^ ^ ^ ^ ^ ^ 6 . . . . . > ' ' `  .} }  .} { }  . . .[ _ _ ",
" . .} }  . .[ ] _ ] [ ] _ _ [ [ -           5 ^ ^ ^ ^ ^ ^ ^ ^ ^ ^ ^ ^ ^ ^ ^ ^ ^ ^ 5           - { {  . . . . .} { { }  . . .] [ ",
" .} { ] ] [ _ _ [ [  .[ ] _ [ [ 1 o # # # @ 5 I J J J J J J J J J J J J J J J J J 5 o # # # @ 2 [ }  . . . . .} { { {  . .[ { } ",
"} { { _ _ _ _ ]  . . . .] ] [ _ j h l m m M q $ $ $ $ $ $ $ $ $ $ $ $ $ $ $ $ $ $ 8 h h l l l ) } }  . .} [ ] [ { { }  .[ _ ] } ",
"{ { { _ _ _ _ [  . . .[ _ _ _ _ ]  . .} { | 0                                     8 ] [  . . . .}  . . .} ] _ [ } }  . .[ _ ]  .",
"{ { { ] _ ] [  . . . .[ ] _ _ _ ]  . . . . .e X X X X X X X X X X X X X X X X X X w [ _ [ [ [ [ ] {  . . .[ [ [ }  . . .[ ] [  .",
"{ { { { ] { }  . .[ ] ] ] _ ] [  .} { { [ } ) d d d d d d d d d d d d d a a d d d N ] ] ] _ _ _ ] {  . . . .[ ] ] [  . .[ ] ] [ ",
"} { { { { { { { } [ _ _ [ [ [  .} } ] ] ] ] {  . . . . .} [ [  . . . . .} {  . . . .} { { ] ] ] [  . . . . . .[ ] [  . . .[ [ [ ",
" . .{ { { { { { }  .[ [  . . . .} [ _ _ ] _ [  . .} { ] { ] ] }  . .}  . .{ }  .}  . . .} } { }  . . .} { { {  . . . . . . . . .",
"} } } { { { { { }  .} } }  . . . . .[ [ [ _ [ } } { ] _ ] { { }  . . . . . . . . . . . . .}  . . .} } { { { {  . . . . .} }  . .",
" . .} { { { } } } } } { { { } } }  . . .} [  .{ { { { ] [  .}  .} } } }  . . . .}  . . . .} {  . .} }  .} { { } } { } } { { }  .",
" .} } } }  . . .}  . .} } { } } }  . .}  . . . .}  .}  . . .} } { { }  .}  . . .{ } } }  . .{  . .{ } }  .} }  .{ { { } { { }  .",
" . . . . . .}  . .}  .}  . . . . . . .}  . . . .{ }  . . . .}  . .}  . .} } { }  . .}  .} } } } } } } } } }  . .} { }  .} }  . ."
};
