/* XPM */
static char *_79ba1e76dd743e4aa38e196b5963fdfI5pTVIugawDCRjTP[] = {
/* columns rows colors chars-per-pixel */
"64 64 203 2 ",
"   c #17141B",
".  c #1D1B1F",
"X  c #250F12",
"o  c #2C1316",
"O  c #2B1B1E",
"+  c #371916",
"@  c #39171E",
"#  c #3A1B1D",
"$  c #2B231E",
"%  c #3D231B",
"&  c #382B1E",
"*  c #090E22",
"=  c #0D1127",
"-  c #0E152E",
";  c #171B27",
":  c #131B34",
">  c #3C1F25",
",  c #162034",
"<  c #1A233D",
"1  c #27292D",
"2  c #3D2726",
"3  c #332F2F",
"4  c #3F3324",
"5  c #242C38",
"6  c #332F35",
"7  c #363635",
"8  c #491C19",
"9  c #551F1C",
"0  c #46271C",
"q  c #5B241D",
"w  c #552C1D",
"e  c #45321F",
"r  c #59341E",
"t  c #61231F",
"y  c #411B22",
"u  c #462427",
"i  c #452E26",
"p  c #572C24",
"a  c #473627",
"s  c #553622",
"d  c #5B3523",
"f  c #543B26",
"g  c #5D3D25",
"h  c #5C3329",
"j  c #4F2936",
"k  c #562C3B",
"l  c #6A2521",
"z  c #642A21",
"x  c #6C2A23",
"c  c #732D25",
"v  c #792D27",
"b  c #7C2E28",
"n  c #633D23",
"m  c #653729",
"M  c #6B352F",
"N  c #6B3531",
"B  c #753A36",
"V  c #7B3C38",
"C  c #5B4125",
"Z  c #5E4529",
"A  c #654224",
"S  c #6B4425",
"D  c #6A4926",
"F  c #66442A",
"G  c #6A462C",
"H  c #664B2D",
"J  c #6C4B2C",
"K  c #734C2B",
"L  c #6C532F",
"P  c #74522A",
"I  c #7C552E",
"U  c #7E582F",
"Y  c #664A32",
"T  c #764632",
"R  c #7C4337",
"E  c #764C35",
"W  c #6E5231",
"Q  c #755131",
"!  c #7B5432",
"~  c #7E5A31",
"^  c #785D3B",
"/  c #1E2740",
"(  c #1C2A44",
")  c #212F4A",
"_  c #2D3741",
"`  c #23314C",
"'  c #263651",
"]  c #36424E",
"[  c #3A4249",
"{  c #3F4D5B",
"}  c #404E5C",
"|  c #822F29",
" . c #82312A",
".. c #8C342D",
"X. c #91352F",
"o. c #913630",
"O. c #953830",
"+. c #835F2E",
"@. c #85443D",
"#. c #8A443F",
"$. c #834B39",
"%. c #8A4C3E",
"&. c #825432",
"*. c #845C34",
"=. c #895E33",
"-. c #8D543C",
";. c #875C3A",
":. c #8C5C3C",
">. c #856231",
",. c #8B6334",
"<. c #8F6833",
"1. c #8D643D",
"2. c #916536",
"3. c #966B36",
"4. c #9B6C36",
"5. c #95653A",
"6. c #9D673D",
"7. c #966B3C",
"8. c #9A6D3A",
"9. c #9D723A",
"0. c #A26F3B",
"q. c #A2733B",
"w. c #A9763C",
"e. c #A6783D",
"r. c #AC7C3D",
"t. c #B47E3E",
"y. c #8F4941",
"u. c #934A42",
"i. c #994D45",
"p. c #9F5448",
"a. c #B75A54",
"s. c #836142",
"d. c #966C42",
"f. c #9E6D43",
"g. c #927A4B",
"h. c #AA654C",
"j. c #AC7641",
"k. c #AE7C40",
"l. c #A9774A",
"z. c #B37C43",
"x. c #B77B4C",
"c. c #B27E4D",
"v. c #B66653",
"b. c #BC6D53",
"n. c #BC7254",
"m. c #C36359",
"M. c #C9675B",
"N. c #D0675F",
"B. c #CB715B",
"V. c #D46A61",
"C. c #D96C63",
"Z. c #D57260",
"A. c #D97162",
"S. c #DD7A64",
"D. c #E17F65",
"F. c #E47568",
"G. c #AE813F",
"H. c #B0823F",
"J. c #B38241",
"K. c #BE8442",
"L. c #BD8A44",
"P. c #B5824F",
"I. c #BD834A",
"U. c #B78350",
"Y. c #BA8351",
"T. c #BD9058",
"R. c #C18644",
"E. c #C38D46",
"W. c #C3874A",
"Q. c #C48C49",
"!. c #C49047",
"~. c #D2845C",
"^. c #D2965C",
"/. c #DC985D",
"(. c #DB8F61",
"). c #C89F63",
"_. c #DD9363",
"`. c #D99C65",
"'. c #E48465",
"]. c #E68B65",
"[. c #E88C67",
"{. c #F08C6B",
"}. c #E79467",
"|. c #ED9368",
" X c #F39E6A",
".X c #C9A163",
"XX c #D3A667",
"oX c #D8A264",
"OX c #E5A566",
"+X c #EAA66A",
"@X c #F6A36A",
"#X c #F7AA6C",
"$X c #F9AD6B",
"%X c #FAAE6C",
"&X c #FDAE6C",
"*X c #FDAF6C",
"=X c #ECB16D",
"-X c #F6B26E",
";X c #FDB16D",
":X c #FFB06D",
">X c #F2A370",
",X c #EEB670",
"<X c #FCB670",
/* pixels */
"W.W.Q.!.!.!.!.E.Q.E.!.!.Q.Q.!.E.W.W.Q.!.!.!.Q.Q.!.!.Q.Q.!.!.!.!.!.!.!.!.!.E.R.R.R.R.E.R.R.E.Q.E.E.E.!.!.!.Q.Q.!.!.Q.Q.Q.E.!.!.!.",
"W.W.Q.Q.Q.Q.W.E.Q.Q.Q.Q.Q.Q.E.E.Q.W.W.Q.!.E.E.Q.!.!.Q.Q.!.!.Q.Q.Q.Q.E.E.E.R.R.R.R.R.E.R.R.W.R.R.R.R.R.E.Q.Q.Q.!.!.Q.Q.Q.E.!.R.R.",
"Q.Q.E.E.E.W.R.E.E.W.W.W.W.W.W.W.Q.Q.W.R.R.R.R.W.Q.!.E.!.!.Q.W.W.W.R.R.R.R.R.R.R.E.W.W.W.W.W.R.R.R.R.R.E.!.!.Q.E.E.W.Q.E.E.E.K.R.",
"Q.Q.!.E.R.R.R.E.Q.W.W.W.W.R.R.R.R.R.R.R.K.K.R.W.W.W.W.Q.W.W.W.W.W.R.R.R.R.W.R.R.W.W.W.W.W.W.W.E.E.E.E.E.E.Q.W.W.W.W.W.R.R.R.K.R.",
"Q.Q.!.E.R.R.E.Q.W.W.W.W.W.W.R.R.R.R.R.R.R.R.R.Q.W.W.W.Q.W.W.W.W.W.W.R.R.W.W.W.W.W.W.W.W.W.Q.Q.!.!.!.E.Q.E.Q.W.W.W.W.R.K.K.K.R.E.",
"!.Q.E.E.R.R.!.Q.Q.W.W.W.W.W.W.W.E.E.R.R.E.E.!.!.!.Q.Q.E.W.W.W.W.W.Q.!.!.Q.Q.Q.Q.Q.Q.Q.E.E.E.E.E.E.E.E.E.!.Q.Q.Q.W.R.R.K.R.R.E.!.",
"Q.Q.!.E.R.E.!.!.E.Q.Q.Q.Q.Q.W.W.W.Q.E.!.!.!.!.!.!.!.!.!.Q.W.W.W.Q.!.!.!.!.!.!.!.!.!.!.!.E.R.R.K.K.R.R.R.R.E.!.!.R.K.K.R.R.E.Q.!.",
"Q.Q.E.R.R.R.E.!.!.!.!.!.!.!.!.Q.W.W.!.!.!.!.!.!.E.!.Q.Q.!.!.Q.E.E.Q.Q.!.!.!.!.E.E.!.!.!.E.R.K.R.R.R.R.R.R.W.W.!.R.K.R.E.E.W.!.!.",
"E.E.Q.R.R.R.W.!.!.!.!.!.E.E.E.E.E.R.E.E.!.!.!.Q.Q.Q.Q.Q.!.!.!.!.!.Q.Q.!.!.!.!.R.E.!.!.!.!.E.R.W.W.W.Q.W.W.W.W.E.E.E.!.!.Q.Q.!.!.",
"!.E.W.W.W.W.W.!.!.E.E.R.R.R.R.R.R.R.R.R.E.E.!.Q.W.E.!.!.!.!.!.!.!.E.E.E.E.!.!.E.E.E.!.!.!.E.W.W.W.W.W.W.W.W.W.!.!.!.!.Q.W.W.Q.Q.",
"!.!.W.W.W.W.Q.Q.R.R.R.R.K.K.R.R.W.R.R.R.R.W.Q.E.!.!.!.E.E.W.W.W.R.R.R.R.R.R.E.!.E.E.!.!.!.E.W.W.W.W.W.W.W.W.W.!.!.!.!.Q.W.W.Q.!.",
"!.Q.W.W.W.E.I.I.q.U I I I I 5.I.I.W.W.W.W.W.W.Q.!.!.Q.Q.E.Q.W.W.R.W.W.R.R.R.R.Q.!.!.!.!.!.!.Q.Q.Q.Q.Q.Q.W.W.W.!.!.!.!.!.W.W.W.!.",
"!.Q.W.W.L.9.J F *.c.Y.Y.I.Y.7.F J ,.8.I.W.W.W.W.W.E.Q.W.Q.!.!.E.R.W.W.W.W.W.W.W.E.!.!.!.!.!.!.!.!.!.!.!.Q.Q.E.!.Q.Q.!.Q.W.W.W.Q.",
"!.Q.W.L.,.1.^.oXOX%X&X&X&X:X+XoX`.l.;.*.z.W.W.W.W.Q.Q.Q.E.!.!.!.E.E.W.W.W.W.W.W.E.!.!.!.!.!.!.!.!.!.!.!.Q.E.E.!.E.E.E.W.W.W.W.!.",
"E.Q.L.,.Y.=X%X%X%X&X&X:X&X&X&X$X$X-X,Xc.I W.W.W.W.Q.!.!.E.!.!.!.!.!.!.Q.E.Q.W.Q.!.!.!.!.!.!.!.!.Q.!.!.Q.Q.W.W.Q.!.!.E.W.W.W.Q.!.",
"W.I.,.c.-X$X&X&X&X:X&X&X&X&X:X:X:X$X+X^.! j.W.W.Q.E.!.!.E.!.!.!.!.!.!.Q.Q.!.!.!.!.!.!.!.!.!.!.Q.Q.Q.Q.W.W.W.W.W.Q.!.Q.Q.E.Q.W.W.",
"W.j.J OX:X&X&X:X&X&X:X:X:X:X$X X X'.h.:.Q ,.E.E.E.E.!.!.E.E.!.!.!.!.!.Q.Q.!.!.!.!.!.!.!.E.W.W.E.Q.!.Q.W.W.W.W.W.W.!.Q.Q.!.E.W.W.",
"I.5.7.$X&X&X:X:X&X:X@X[.[.[.D.V.A.'.}.^.1.*.J.!.E.E.!.E.W.Q.!.!.E.Q.E.!.Q.Q.E.!.!.!.!.!.Q.W.W.Q.Q.!.E.W.W.W.W.W.W.E.E.Q.W.!.E.E.",
"L.~ Y.<X&X:X:X:X&X&X$X X|.S.S.|.@X$X%X-XXX~ G.E.!.!.!.!.Q.E.!.!.Q.W.Q.!.Q.W.!.!.!.!.!.!.Q.W.Q.!.!.!.!.Q.W.W.W.W.Q.!.!.Q.W.E.E.E.",
"L.~ U.<X&X:X:X:X&X&X:X:X:X&X&X:X:X@X].].~.! J.E.!.E.!.!.!.!.!.!.E.Q.!.!.!.Q.!.!.!.!.!.!.!.E.!.!.!.!.!.Q.W.W.Q.Q.E.!.!.!.E.R.R.R.",
"J.! ^.:X&X&X:X:X&X:X&X&X&X&X&X&X|.Z.B a.i.*.L.E.Q.W.!.!.!.!.!.!.!.!.!.!.!.!.!.!.!.!.!.!.!.!.!.!.!.!.!.!.Q.Q.E.!.!.!.!.!.!.R.R.R.",
"9.R {.$X&X&X:X:X:X:X:X&X:X&X&X@XV.B > N @.,.L.E.W.W.!.!.!.Q.W.Q.!.!.!.!.!.Q.Q.!.!.!.!.!.!.!.!.!.!.!.!.!.!.!.E.!.!.E.E.!.!.R.R.R.",
"9.R F.@X&X&X:X&X:X:X:X:X:X:X&X#Xb.u j u $.,.L.E.E.!.!.!.Q.W.W.W.Q.!.!.!.!.Q.W.W.Q.!.!.!.!.!.!.!.!.!.E.E.E.R.R.E.!.E.R.R.!.E.R.R.",
"8.R F.S.@X&X&X&X&X&X&X&X&X&X&X%Xf.2 k i P.U t.R.!.!.!.!.W.W.W.W.W.Q.E.!.!.Q.W.W.W.!.!.Q.Q.E.!.!.!.!.Q.W.R.R.R.E.!.E.R.R.E.!.E.Q.",
"e.T N.V.A.[.&X&X:X:X&X&X&X&X&X$Xf.O u Y T.F w.L.!.!.!.E.W.R.W.W.W.W.W.Q.E.E.Q.W.Q.!.!.!.Q.Q.E.E.!.!.Q.W.R.K.R.E.!.!.R.R.E.Q.Q.!.",
"L.I i.F.V.V.D.[.@X@X'.'.'.{.{.{.B.@.-.W.! <.L.E.!.!.!.Q.R.R.R.W.W.R.W.W.R.W.W.Q.Q.Q.Q.Q.Q.W.W.W.Q.!.!.!.E.R.R.E.!.!.!.!.!.Q.W.Q.",
"E.r.&.u.M.V.V.V.A.A.C.C.a.#.@.#.y.V x./.K 8.L.E.!.!.!.Q.W.W.W.W.W.W.W.R.R.W.W.W.W.W.W.W.W.W.W.Q.E.!.!.!.!.!.!.!.!.!.!.!.!.Q.W.Q.",
"!.E.k.*.$.a.N.V.m.a.B M N V @.0 g N m.~.x.Q 8.E.!.!.!.E.Q.W.W.W.W.W.W.E.R.E.Q.Q.Q.Q.Q.Q.Q.Q.!.!.!.!.!.!.!.!.!.!.!.Q.Q.Q.!.!.E.!.",
"Q.!.E.W.2.n %.u.g d %.v.u.p.].%.6.K # h J g I L.!.!.!.!.!.E.Q.Q.Q.Q.E.E.!.!.!.!.!.!.!.!.!.!.!.!.!.!.!.!.!.!.!.E.Q.W.W.W.!.!.Q.Q.",
"Q.!.!.Q.W.I.*.I r.z.J >Xm.h n._.-.J s Q ! g I L.!.!.!.!.!.!.!.E.E.E.Q.Q.E.!.!.!.!.!.!.!.!.!.E.!.Q.Q.!.!.Q.Q.E.W.W.W.W.W.Q.E.Q.Q.",
"!.!.Q.Q.E.Q.W.R.R.=.f.`.-.&.$.[._..X.X)..Xg.*.L.!.!.!.!.Q.!.!.Q.W.Q.Q.Q.Q.!.!.!.!.!.!.!.E.Q.W.Q.Q.Q.E.!.W.W.Q.W.W.W.W.W.W.W.!.!.",
"!.!.!.!.!.!.E.Q.I.e a i f q.n h F H H H H Q w.E.E.E.E.E.!.!.!.E.Q.Q.Q.!.!.E.E.R.E.E.!.!.E.Q.W.E.E.!.!.!.Q.Q.Q.Q.Q.Q.E.W.W.W.Q.!.",
"!.!.Q.Q.!.!.E.L.L 5 ( ( 3 G F K 8.j.j.j.5.&.q.J.J.J.J.K.E.!.E.E.E.!.!.!.E.R.R.R.R.E.E.R.E.!.!.!.!.!.!.!.!.!.!.!.!.!.!.Q.W.W.W.Q.",
"!.!.Q.Q.!.!.L.3.3 ` ` ` 6 E -.m E &.=.*.n q z A A A A =.4.J.H.E.!.!.!.!.E.R.R.E.E.E.E.R.!.!.!.!.!.!.!.!.!.!.!.!.!.!.!.!.Q.E.Q.W.",
"!.Q.Q.!.!.E.L.J 5 ` ` ` ) /   C ! h G b.$.l .. . . .c + % f Y J.E.E.E.R.E.E.!.!.E.R.R.E.E.Q.Q.Q.E.E.E.R.R.R.R.E.E.!.!.!.!.!.W.W.",
"!.E.Q.!.!.E.3.1 ` ` ` ` ` <   >.J.9.q.G p ..O.X.X.X.9 + @ ; 1 & 4 4 4 4 4 4 4 L J.K.K.R.W.W.W.R.R.R.K.K.K.R.R.R.R.!.!.E.E.!.Q.Q.",
"!.!.!.!.E.E.,.; ` ` ` ` ( - $ 9.E.!.!.r.g z z  ...b + @ @ . 5 ] } } } } } } { 7 ,.K.K.R.W.R.R.K.K.K.K.K.R.R.W.R.R.E.!.Q.Q.!.!.Q.",
"!.!.!.E.R.9.a ( ` ` ` ` < * C L.E.!.!.!.G.>.+.n r 0 o @ @ . 5 _ ] ] ] ] ] ] [ Y z.R.R.R.K.K.K.K.R.R.R.R.W.W.W.R.E.W.Q.Q.Q.!.!.!.",
"!.!.E.L.q.r   ' ` ` ( : -   U L.E.Q.Q.!.!.!.E.J.r.4.K s o . 3 Z W W L L L L ~ J.W.W.W.R.R.R.R.W.W.W.W.W.W.W.W.Q.E.Q.E.Q.!.!.!.!.",
"!.!.!.L.P z # , , ; - - = & w.R.R.R.W.E.!.!.!.E.R.K.L.t.3.*.P L.R.E.E.E.E.E.E.Q.W.W.W.W.W.W.W.W.W.W.W.W.W.W.W.Q.!.!.Q.Q.E.!.!.!.",
"E.R.E.r.d  .z m % g O   4 8.L.R.R.R.W.Q.!.!.Q.E.E.E.E.!.E.K.J.E.!.E.!.!.!.!.!.E.W.W.W.W.W.W.W.W.W.W.W.W.W.W.W.E.!.!.W.W.!.!.!.!.",
"R.R.L.I z m d.E g =.I ,.e.E.!.E.E.R.W.W.Q.Q.W.W.!.!.!.!.!.E.E.!.!.E.!.E.Q.Q.!.!.Q.W.W.W.W.W.W.W.W.R.R.R.R.R.R.!.!.!.W.W.!.!.!.!.",
"R.R.L.K 8 $.+X~.~.l.1.*.z.E.!.!.!.!.Q.Q.!.Q.W.W.!.!.!.!.!.!.!.!.!.!.!.E.Q.E.!.!.!.Q.W.W.W.W.W.W.R.K.K.R.R.R.R.E.E.E.Q.Q.!.Q.W.Q.",
"E.E.L.D 8 8 v.5.;.(.+X*.e.E.!.!.!.!.E.!.!.!.Q.E.!.!.!.!.!.!.!.!.!.!.!.E.E.E.!.!.!.!.Q.W.W.W.W.R.K.K.R.R.R.R.R.R.W.Q.!.!.!.Q.W.W.",
"!.Q.L.A X o % ^ s.p G T =.L.Q.E.R.R.E.E.Q.!.!.!.!.!.!.Q.!.!.!.!.!.Q.Q.W.E.E.!.!.!.!.!.E.E.Q.Q.E.R.E.E.!.!.!.!.E.R.R.E.!.!.Q.W.W.",
"!.!.E.I # y o G *.q.e.J N 3.E.R.R.K.R.E.E.E.!.!.!.!.E.Q.E.!.!.!.!.W.W.W.Q.E.!.!.!.!.!.E.R.E.!.!.!.!.!.!.!.!.!.!.R.R.R.E.Q.E.E.E.",
"!.!.E.J.D % 0 E ,.L.L.,.m K J.E.R.R.K.R.E.!.!.!.!.!.!.E.E.E.W.W.E.Q.W.W.Q.Q.W.W.!.!.!.R.R.E.!.!.!.!.!.!.!.E.!.!.E.R.R.E.Q.E.!.E.",
"!.!.E.K.t.2.f :.8.W.E.G.K h 2.L.E.R.R.K.E.!.!.!.E.Q.E.E.R.R.W.W.!.E.Q.Q.!.Q.W.W.!.!.!.!.E.!.!.!.!.!.!.!.!.Q.W.Q.!.E.E.W.Q.!.Q.Q.",
"Q.Q.E.R.L.U ! G z.W.Q.L.P i.$.q.W.W.R.R.E.E.!.!.E.W.W.R.K.K.R.E.!.!.!.!.!.!.W.Q.!.!.!.!.!.!.!.E.Q.Q.!.!.!.Q.Q.Q.!.!.E.W.W.Q.Q.Q.",
"!.Q.!.L.P $.l.+ 5.W.R.3.0 V M P W.W.W.R.R.R.W.R.R.R.W.W.R.R.R.!.!.!.E.E.E.!.!.!.Q.E.!.!.!.!.!.E.W.W.!.!.!.!.E.!.!.!.E.W.W.E.!.!.",
"!.!.E.,.q z m x S J.J.n b t x w z.W.W.R.R.R.W.R.R.R.W.Q.E.!.!.!.!.Q.W.W.W.Q.!.!.Q.E.!.!.!.!.!.E.W.W.!.!.!.!.!.!.!.!.!.E.E.E.R.R.",
"!.Q.k.n ..| b c I L.J.A v O.X.w z.W.W.E.E.W.W.R.R.E.E.!.!.!.!.!.!.Q.W.W.W.Q.Q.Q.Q.Q.!.!.!.!.!.E.W.W.!.!.Q.Q.!.Q.Q.Q.!.!.!.R.R.R.",
"!.E.,.q ..o...r 4.K.J.A v X...x K R.R.E.!.E.Q.Q.E.!.E.E.!.Q.Q.Q.Q.Q.E.E.E.E.R.R.R.R.E.!.!.!.!.E.W.Q.!.!.!.!.!.Q.W.W.Q.E.!.E.R.R.",
"E.r.r  .X.X.c A J.L.J.A v X...v r R.R.W.Q.!.!.!.E.Q.Q.Q.E.W.W.Q.E.E.!.!.E.R.K.K.K.K.R.E.!.!.!.!.Q.!.!.!.!.E.E.Q.W.W.W.E.E.E.R.E.",
"E.z.d c v v z P E.E.J.K x b v x A R.R.W.W.Q.!.!.Q.Q.Q.!.!.Q.Q.Q.!.!.!.!.Q.W.R.R.K.K.K.R.!.!.!.!.Q.Q.!.!.E.R.R.R.W.W.E.!.E.R.R.E.",
"W.W.0.A n n K L.!.!.!.r.S n n S r.E.E.Q.W.W.Q.!.!.!.!.!.!.!.E.!.Q.Q.!.Q.W.W.W.R.R.R.K.R.E.!.!.E.E.E.!.!.E.R.R.R.Q.Q.!.!.E.K.R.E.",
"W.W.W.R.K.R.E.!.!.!.E.E.R.K.K.K.R.!.!.E.Q.Q.!.!.!.!.!.!.!.!.Q.!.E.Q.!.W.W.W.Q.E.E.R.R.R.R.E.R.R.R.W.!.!.!.E.R.R.R.!.!.!.E.R.E.!.",
"W.W.W.W.R.W.Q.!.E.E.R.R.R.K.R.R.E.E.W.W.R.E.!.!.!.!.!.!.!.E.E.!.!.!.!.Q.W.W.E.!.!.W.R.R.R.R.R.R.R.R.!.!.!.!.E.R.R.E.!.!.E.R.R.E.",
"Q.W.W.W.W.W.W.Q.E.E.R.K.R.E.E.!.E.E.R.R.R.R.R.!.!.!.!.E.W.R.R.E.!.!.!.!.Q.W.Q.!.!.!.Q.W.W.R.R.R.R.E.!.!.!.E.!.E.R.E.!.!.!.E.E.E.",
"E.Q.W.W.W.W.W.W.Q.E.R.R.E.!.!.!.Q.E.R.R.R.R.R.E.!.Q.R.R.R.R.R.Q.!.!.Q.!.E.W.Q.!.!.!.!.!.Q.Q.W.Q.!.!.!.Q.W.W.Q.!.!.!.!.!.!.!.!.!.",
"Q.Q.Q.W.W.W.W.W.Q.!.E.Q.Q.E.!.!.!.E.R.R.R.R.R.E.Q.W.R.R.R.W.W.Q.!.!.!.!.!.!.E.!.!.!.!.!.!.E.E.!.!.Q.Q.W.W.W.W.Q.!.E.!.!.Q.Q.E.!.",
"!.E.Q.W.W.W.Q.Q.Q.Q.Q.W.W.W.Q.Q.Q.!.E.E.E.E.E.Q.Q.W.R.R.E.!.Q.!.Q.Q.Q.Q.!.!.!.!.!.!.E.!.!.Q.Q.E.!.Q.Q.E.Q.W.W.Q.Q.W.Q.Q.W.W.Q.!.",
"!.Q.Q.Q.Q.Q.E.!.!.!.!.Q.Q.W.Q.Q.Q.!.!.Q.!.!.!.!.Q.E.E.!.!.!.Q.Q.W.W.Q.E.!.!.!.E.Q.Q.Q.Q.!.!.Q.Q.!.Q.Q.E.Q.Q.Q.E.Q.W.W.Q.W.W.Q.!.",
"!.!.!.!.!.!.Q.!.!.Q.!.Q.!.!.!.!.!.!.!.Q.!.!.!.!.W.E.!.!.!.!.Q.E.E.Q.E.E.Q.Q.Q.Q.E.E.Q.E.Q.Q.Q.Q.E.Q.Q.Q.Q.Q.!.!.Q.W.Q.E.Q.Q.E.!."
};
