/* XPM */
static char *_1d70157b05f4012ad6786304f5a5a1bWOCRbWlH2zACDObZ[] = {
/* columns rows colors chars-per-pixel */
"64 64 142 2 ",
"   c #020100",
".  c #0A0601",
"X  c #0D0905",
"o  c #140D06",
"O  c #1A0E01",
"+  c #120E09",
"@  c #191007",
"#  c #16110B",
"$  c #1C140B",
"%  c #151617",
"&  c #1F1810",
"*  c #171818",
"=  c #1B1C1C",
"-  c #231201",
";  c #2A1602",
":  c #261807",
">  c #2D1903",
",  c #20170E",
"<  c #21180F",
"1  c #281E0F",
"2  c #351C02",
"3  c #391E01",
"4  c #361F08",
"5  c #211911",
"6  c #2A1E10",
"7  c #221F1C",
"8  c #3C2104",
"9  c #36220C",
"0  c #3A230C",
"q  c #2F2311",
"w  c #342515",
"e  c #382716",
"r  c #362916",
"t  c #3A2A16",
"y  c #362719",
"u  c #362A18",
"i  c #3A2B18",
"p  c #222222",
"a  c #272829",
"s  c #2B2B2C",
"d  c #3D3227",
"f  c #3C342A",
"g  c #2D2F31",
"h  c #2F3133",
"j  c #323333",
"k  c #3C3D3E",
"l  c #412201",
"z  c #4C2701",
"x  c #4F2902",
"c  c #42270A",
"v  c #43280A",
"b  c #522A01",
"n  c #592E01",
"m  c #5E3102",
"M  c #452E17",
"N  c #432F19",
"B  c #46321A",
"V  c #4D361D",
"C  c #523B1D",
"Z  c #643403",
"A  c #693602",
"S  c #6C3803",
"D  c #753D04",
"F  c #783F04",
"G  c #413527",
"H  c #423628",
"J  c #443A2C",
"K  c #563E21",
"L  c #7A4004",
"P  c #564020",
"I  c #5F4622",
"U  c #43413E",
"Y  c #604623",
"T  c #6B4E27",
"R  c #6B4B29",
"E  c #6C5027",
"W  c #6E5128",
"Q  c #7C562D",
"!  c #7B5A2D",
"~  c #3F3F40",
"^  c #3F4041",
"/  c #454444",
"(  c #484745",
")  c #474748",
"_  c #474848",
"`  c #4C4C4D",
"'  c #4E4F50",
"]  c #545454",
"[  c #575758",
"{  c #575858",
"}  c #5B5B5C",
"|  c #646464",
" . c #686868",
".. c #875E2E",
"X. c #895F35",
"o. c #856331",
"O. c #8B6533",
"+. c #8C6834",
"@. c #936634",
"#. c #936C35",
"$. c #986B35",
"%. c #966939",
"&. c #9A6B3A",
"*. c #977037",
"=. c #9A7137",
"-. c #9A7238",
";. c #A9763B",
":. c #A4793B",
">. c #AC7D3F",
",. c #B77E3E",
"<. c #AC7741",
"1. c #AE7841",
"2. c #B37D44",
"3. c #B97F46",
"4. c #AF823F",
"5. c #B6813F",
"6. c #B8803F",
"7. c #AF8240",
"8. c #B48441",
"9. c #BC8443",
"0. c #BB8944",
"q. c #BC8248",
"w. c #C08643",
"e. c #C28647",
"r. c #C48746",
"t. c #C18843",
"y. c #C18944",
"u. c #C38D46",
"i. c #C48F47",
"p. c #C38648",
"a. c #C4874B",
"s. c #C18948",
"d. c #C4894A",
"f. c #C48D48",
"g. c #C48E48",
"h. c #C88E4A",
"j. c #C88A4D",
"k. c #C39047",
"l. c #C49047",
"z. c #C69148",
"x. c #C89249",
"c. c #C99449",
/* pixels */
"d.d.g.l.l.l.l.i.d.i.l.l.g.g.l.l.d.d.g.l.l.l.d.g.l.l.g.g.l.l.l.l.l.l.l.l.l.i.t.w.w.t.i.y.y.l.g.g.i.l.l.l.l.g.g.l.l.g.g.g.i.l.l.l.",
"d.a.g.g.g.g.d.l.g.g.g.g.d.g.l.l.g.d.d.s.k.O.K K P P K K P P P P P P P K K C C C C C o.y.y.g.s.e.e.w.y.s.g.g.d.l.l.g.g.d.g.k.y.u.",
"g.g.l.l.g.p.e.u.l.d.a.a.a.s.s.d.g.u.s.O.V J k k k k k k k k k k k k k k k k k k k k J V X.p.e.w.w.w.y.u.l.l.g.l.i.d.g.l.l.u.9.w.",
"g.g.l.l.y.w.t.u.g.d.a.a.a.e.w.9.9.@.B J / ]  . . . . . . . . . . . . . . . . . . . .] / J B O.0.u.l.l.g.l.g.d.d.d.d.d.y.w.t.9.w.",
"g.g.l.u.9.w.i.d.d.a.a.a.a.a.e.@.N H ( ] | | | | | | | | | | | | | | | | | | | | | | | | ] ( H B #.l.l.g.l.d.a.d.a.a.e.9.9.9.t.u.",
"l.g.g.u.w.u.l.g.g.a.a.a.d.d.&.J ) ] | | / 7 7 7 7 7 7 7 7 7 7 7 7 7 7 7 7 7 7 7 7 7 7 U | | ] ) H #.l.l.l.g.g.g.d.p.e.9.w.y.g.z.",
"g.g.l.u.y.u.l.l.l.g.d.g.g.&.H ] | | ( 7 0 n n n n n n n n n n b b n n n n n n n n n n 0 7 / | | ] H @.y.u.g.l.l.y.9.9.w.y.g.d.g.",
"d.g.i.e.9.w.i.l.l.l.l.k.-.H ] | | ( 0 n A L L L L L L L L D A ; - A D L L L L L L L L S m 0 / | | ] G @.e.a.d.l.y.9.t.u.g.d.l.l.",
"l.l.g.e.w.p.d.l.l.l.k.-.G ] | | ( 0 A L F F F F F F F S A 8 : .   : 8 A S F F F F F F F L A 0 / | | ] H %.p.d.l.l.i.l.z.d.g.l.l.",
"l.l.d.a.a.a.d.l.l.u.=.G ] | | ( 9 A F F F F F F F F S 8 9 O.#.$ @ @.+.9 8 A F F F F F F F F S 0 / | | ] H %.s.l.l.l.l.g.a.d.g.g.",
"l.l.d.a.a.d.g.g.y.$.d ] | | ( 9 S F F F F F F F F S v o.>.s.2.$ $ >.e.;...c A F F F F F F F F S 0 / | | ] d &.u.l.l.l.g.a.a.g.l.",
"l.g.a.d.g.g.g.p.&.G ] | | ( 9 S F F F F F F F F D 2 ! d.x.h.2.$ $ 1.d.r.w.Q 2 D F F F F F F F F S 9 / | | ] d *.k.l.l.l.d.a.d.l.",
"l.g.a.d.l.l.s.&.H ] | | ( 9 S F F F F F F F F F D > R &.&.-.O.$ o X.&.&.&.R ; D F F F F F F F F F S 9 ( | | ] H &.u.l.g.d.a.d.g.",
"l.g.d.g.l.l.9.i ` | | ( 9 S F F F F F F F F F F D ; 1 t t t r . . w t t t 6 ; D F F F F F F F F F F S 0 ( | | ] i 8.z.d.a.a.d.l.",
"i.g.l.l.g.u.%.d [  .{ 5 A F F F F F F F F F F F D > ! 0.8.0.:.$ $ :.0.8.0.o.> D F F F F F F F F F F F A < ]  .} d #.u.d.d.d.g.l.",
"d.d.g.l.g.9.i ` | | / 4 D F F F F F F F F F F F D > o.c.u.l.8.$ $ 4.z.g.x.+.> D F F F F F F F F F F F D 9 U | | ` i 9.g.l.g.d.d.",
"d.a.g.l.u.@.f ]  .} 5 A F F F F F F F F F F F F D > o.c.z.x.8.$ $ 7.c.z.x.+.> D F F F F F F F F F F F F A < }  .} f O.y.l.l.d.d.",
"d.a.d.l.0.i ` | | U 0 D F F F F F F F F F F F F D > C ! Q ! W o o T ! ! ! K ; D F F F F F F F F F F F F D 0 U | | ` i 9.d.l.l.l.",
"d.a.d.l.0.i `  .} 5 A F F F F F F F F F F F F F D > r C C C B X X B C C C e ; D F F F F F F F F F F F F F A 5 }  .` u 9.d.u.y.u.",
"g.d.g.g.9.i `  .} 5 A L F F F F F F F F F F F F D > o.z.k.l.8.$ $ >.l.k.z.O.> D F F F F F F F F F F F F F A < }  .` u 0.z.t.w.y.",
"i.g.l.d.q.i `  .} 5 A L F F F F F F F F F F F F D > o.c.z.z.8.$ $ 4.c.z.c.+.> D F F F F F F F F F F F F L A 5 }  .' u 0.l.t.w.s.",
"g.l.l.g.9.r p j s $ A L F F F F F F F F F F F F D > N Y I Y K X X C Y I Y B ; D F F F F F F F F F D z 3 3 2 o a j a w 0.l.y.9.t.",
"l.l.l.l.0.r a k j $ A L F F F F F F F F F F F F D > B E T R Y o X I T T T V ; D F F F F F F F F F D x l l 3 + j k a w 8.l.u.y.u.",
"g.l.g.g.0.i `  .} 5 A L F F F F F F F F F F F F D > o.c.g.j.2.$ $ 8.x.z.c.+.> D F F F F F F F F F F F L L S 5 }  .' e ,.l.l.g.g.",
"l.l.l.g.0.i `  .} 5 A L F F F F F F F F F F F F D > o.l.e.9.1.$ $ <.p.y.l.O.> D F F F F F F F F F F F F L A < }  .` e 5.l.g.g.l.",
"l.l.l.l.0.i `  .} 5 A L F F F F F F F F F F F F D > q B M M t X . t M B B w ; D F F F F F F F F F F D D D A < }  .` u 0.l.d.a.d.",
"l.l.l.z.9.i `  .} 5 A L F F F F F F F F F F F F D m b b b b b b b b b b b b m D F F F F F F F F F D 8 ; ; - # }  .` u 0.l.g.d.g.",
"l.l.g.g.q.i _ | ] 5 A L F F F F F F F F F F F F F L L L L L L L L L L L L L L F F F F F F F F F F D m n n z $ ] | ` u 0.l.l.l.l.",
"g.l.l.g.q.e % p = o A L F F F F F F F F F F F F F F F F F F F F F F F F F F F F F F F F F F F F F F L L L S o = p * w 9.z.l.g.g.",
"g.l.l.z.9.i k ] ( $ A L F F F F F F F F F F F F F F F F F F F F F F F F F F F F F F F F F F F F F F F F F A $ ( ] k e 9.g.l.g.g.",
"l.l.g.g.0.i `  .} 5 A L F F F F F F F F F F F F F F F F F F F F F F F F F F F F F F F F F F F F F F F F F A 5 }  .' u 9.d.d.l.l.",
"l.l.l.l.0.i `  .} 5 A L F F F F F F F F F F F F F F F F F F F F F F F F F F F F F F F F F F F F F F F F F A < }  .` u 9.a.a.g.l.",
"l.l.g.g.0.i `  .} 5 A L F F F F F D F F F F F F F F F F F F F F F F F F F F F F F F F F F F F F F F F F F A < }  .` u 9.d.d.g.d.",
"l.l.g.g.0.i `  .} 5 A L F F L L L L L L L L L F F F F D F F F F F F F F F F F F F F F F F F F F F F F F F A 5 }  .' u 0.g.i.d.a.",
"l.g.g.l.0.i k ] ` $ A L F D Z Z Z Z Z Z Z Z Z S F F F F F F F F F F F F F F F F F F F F F F F F F F F F F A $ _ ] k r 0.l.l.d.d.",
"l.l.g.l.0.r % p = o A L L A ; O . . . . . O - n L F F F F F F F F F F F F F F F F F F F F F F F F F F F F S o = p % w 0.z.l.g.g.",
"l.l.l.l.0.i ( | ] & A L F D D x           3 D D F F F F F F F F F F F F F F F F F F F F F F F F F F F F F A , ] | ` r 9.d.l.l.g.",
"l.l.l.u.9.i `  .} 5 A L F F L m - - - - - x L F F F F F F F F F F F F F F F F F F F F F F F F F F F F F F A < }  .` u 9.g.l.l.g.",
"l.l.g.y.,.r `  .} 5 A L F F F D D D D D D D F F F F F F F F F F F F F F F F F F F F F F F F F F F F F F F A < }  .` u 9.g.l.l.l.",
"l.l.l.u.9.r `  .} 5 A L F F F F F F F F F F F F F F F F F F F F F F F F F F F F F F F F F F F F F F F F F A < }  .` u 9.l.l.l.g.",
"u.u.l.l.0.i `  .} 5 A L F F F F F F F F F F F F F F F F F F F F F F F F F F F F F F F F F F F F F F F F F A 5 }  .' y 9.l.l.l.l.",
"w.9.y.l.0.r a k j $ A L F F F F F F F F F F F F F F F F F F F F F F F F F F F F F F F F F F F F F F F F F A $ j k s e 9.l.l.l.l.",
"t.w.u.l.9.r p s a @ A L F F F F F F F F F F F F F F F F F F F F F F F F F F F F F F F F F F F F F F F L L S @ a s p w 9.l.g.d.g.",
"l.u.l.l.0.i `  .} 5 A L F F F F F F F F F F F F F F F F F F F F F F F F F F F F F F F F F F F F F D z 3 8 2 $ }  .` u 0.l.d.a.d.",
"l.g.g.l.0.i `  .} 5 A L F F F F F F F F F F F F F F F F F F F F F F F F F F F F F F F F F F F F F D x 8 l 3 $ }  .` u 0.l.g.d.d.",
"l.l.l.l.0.i `  .} 5 A L F F F F F F F F F F F F F F F F F F F F F F F F F F F F F F F F F F F F F F L L L S < }  .` r 9.d.l.i.u.",
"l.l.l.t.6.r `  .} 5 A L F F F F F F F F F F F F F F F F F F F F F F F F F F F F F F F F F F F F F F F F L A < }  .` u 9.g.l.l.u.",
"l.l.u.w.,.r ` | } 5 A L F F F F F F F F F F F F F F F F F F F F F F F F F F F F F F F F F F F F F F D D D A < { | ` u 9.g.l.d.g.",
"g.g.l.u.9.r * a p o A L F F F F F F F F F F F F F F F F F F F F F F F F F F F F F F F F F F F F F D 8 ; ; - X p a * w 3.d.g.d.g.",
"g.g.l.l.0.r j ` / $ A L F F F F F F F F F F F F F F F F F F F F F F F F F F F F F F F F F F F F F D m n n z @ ~ ` j e 9.d.l.l.l.",
"l.l.l.l.0.i `  .} 5 A L F F F F F F F F F F F F F F F F F F F F F F F F F F F F F F F F F F F F F F L L L S 5 }  .' u 0.z.u.t.y.",
"l.g.d.l.0.i `  .} 5 A L F F F F F F F F F F F F F F F F F F F F F F F F F F F F F F F F F F F F F F F F F A < }  .` u 0.l.y.9.9.",
"l.l.g.g.0.i `  .} 5 A L F F F F F F F F F F F F F F F F F F F F F F F F F F F F F F F F F F F F F F F F F A < }  .` u 0.l.u.w.y.",
"l.g.s.e.9.i `  .} 5 A L F F F F F F F F F F F F F F F F F F F F F F F F F F F F F F F F F F F F F F F F F A 5 }  .' u 0.l.u.d.g.",
"i.d.p.9.,.r ^ } ` $ A L F F F F F F F F F F F F F F F F F F F F F F F F F F F F F F F F F F F F F F F F F A $ ` } / r 0.u.9.e.g.",
"d.a.p.w.,.w % = * o A L F F F F F F F F F F F F F F F F F F F F F F F F F F F F F F F F F F F F F F F F F S o * = % w 0.u.9.w.l.",
"d.a.d.e.,.r / } ] $ A L F F F F F F F F F F F F F F F F F F F F F F F F F F F F F F F F F F F F F F F F F A $ ] } ( r 0.u.w.u.l.",
"d.a.a.a.9.i `  .} 5 A L F F F F F F F F F L F F F F F F F F F F F F F F F F F F F F F F F F F F F F F F F A 5 }  .` u 0.u.w.w.u.",
"g.d.a.a.q.i `  .} 5 A L L L F F F F F F L L L F F F F F L L L F F F F F F L F F F F F F F L F F F F F F F A < }  .` u 0.l.u.y.u.",
"l.g.d.a.q.i `  .} 5 A L F L L F F F F F L L L F F F F F L L L F F F F F F F F F F F F F F L L F F F F F F A < }  .` u 0.l.l.l.l.",
"g.g.g.d.9.i `  .} 5 A L L L L L L L L L L L L L L L L L L L L L L L L L L L L L L L L L L L L L L L L L L S 5 }  .' u 0.g.g.l.l.",
"l.l.g.d.q.e g / k + l z z z z z z z z z x z z z z z z z z z z z z z z z z z z z z z z z z z z z z z z z z l + k / h w 9.a.a.g.l.",
"l.g.g.g.0.W V V V V V V V V V V V V V V V V V V V V V V V V V V V V V V V V V V V V V V V V V V V V V V V V V V V V R 9.a.a.g.l.",
"l.l.l.l.l.l.g.k.k.g.u.g.k.k.k.k.u.u.k.u.k.k.k.u.s.u.k.k.k.k.u.u.k.u.k.u.g.g.s.g.k.k.u.u.u.g.s.u.u.u.s.g.g.g.k.k.u.s.g.l.g.g.l.l."
};
